<svg width="500" height="500" version="1.1" viewBox="0 0 500 500" xmlns="http://www.w3.org/2000/svg"><path d="m171.32 24.153c7.1782-9.4063 16.801-17.608 28.532-20.439 10.225-2.6015 21.149-0.52992 30.471 4.119 8.8884 4.2274 16.344 10.755 23.799 17.054 12.164 10.31 23.919 21.065 35.53 31.989 61.93 58.762 118.66 122.79 172.47 188.99 11.526 14.152 22.498 28.917 30.82 45.225 4.0588 8.226 7.8406 17.199 6.9132 26.593-0.85512 10.454-6.7807 19.728-14.103 26.918-20.691 19.692-48.489 28.785-74.793 38.264-75.046 27.328-149.98 54.956-225.23 81.742 31.338-41.479 59.509-85.319 84.452-130.92 13.453-24.124 26.521-48.465 38.468-73.359 9.334-19.632 18.174-39.612 24.232-60.533 3.854-13.61 6.4917-27.882 4.6971-42.045-1.927-13.044-6.6482-26.653-17.066-35.349-6.4074-5.492-15.007-7.5154-23.293-6.8289 11.502 0.1686 21.896 7.7322 26.509 18.102 6.588 14.802 6.2508 32.085 1.1683 47.296-5.3234 15.922-14.091 30.399-23.076 44.478-14.79 22.715-31.061 44.43-47.405 66.037-25.184 32.964-50.609 65.748-76.563 98.122-29.785 36.734-60.882 72.42-93.714 106.47-9.9603 0.99965-20.005 1.9873-29.989 0.79491-14.79-1.2044-30.254-5.7088-40.708-16.801-8.9968-9.3461-12.598-22.45-13.441-35.096v-7.5515c0.99965-25.533 9.876-49.802 18.861-73.444 1.4453-3.1555 1.8066-7.2625 4.9019-9.322 49.814-32.699 98.339-67.374 145.55-103.75 29.002-22.631 57.955-45.43 84.801-70.601 12.249-11.851 24.521-24.004 33.675-38.48 3.3362-5.7329 6.9734-12.273 5.6004-19.138-0.91532-4.2636-5.1668-6.0581-8.6114-7.9008 1.927 2.0475 4.6851 3.7577 5.3595 6.6964 1.0719 4.7092-0.96351 9.4183-3.2639 13.441-5.2873 8.8282-12.706 16.091-20.137 23.112-15.416 14.128-32.326 26.521-49.452 38.48-55.065 38.011-113.26 71.3-172.65 102.04 32.711-79.863 67.964-158.7 105.73-236.3 6.7326-12.827 12.249-26.436 20.956-38.107z" fill="#006338" stroke-width="1.2044"/></svg>
