<svg width="500" height="500" version="1.1" viewBox="0 0 500 500" xmlns="http://www.w3.org/2000/svg"><path d="m0 0h500v500h-500z" fill="#97d700"/><path d="m341.04 224.39c3.0508-0.48964 6.1394-0.79096 9.2373-0.7533h46.149c9.1243 0.0942 18.352-0.54614 27.326 1.4878 23.173 4.6893 42.91 22.919 49.492 45.612 3.7382 11.394 2.6836 23.503 2.8154 35.292-9e-3 11.299 0.0188 22.589-9e-3 33.879-0.31073 15.772-4.774 31.469-13.013 44.944-8.032 13.823-20.932 23.616-32.316 34.492-19.831 18.145-39.576 36.403-59.397 54.567-0.92279 0.67797-1.9492 1.0075-3.0791 0.97929-18.22-0.0377-36.441 0.0377-54.652-0.0377-3.7476 0.17891-5.7627-5.339-2.4576-7.3823 34.746-32.495 69.689-64.783 104.51-97.203 8.4934-6.9021 14.096-17.476 14.153-28.503 0.0188-15.377 0-30.753 0.0188-46.121 0.39548-5.9887-0.99812-12.298-4.9906-16.911-4.1149-5.0753-10.603-8.0603-17.128-7.9284-17.26 9e-3 -34.52 9e-3 -51.77 0-7.7778 0.0565-15.405 3.2674-21.008 8.6252-37.919 34.275-75.829 68.55-113.74 102.83-2.0998 1.7514-3.8136 4.1431-6.4595 5.1036-9.1055 0.14124-18.22 0.0188-27.335 0.0565-2.2976 0.17891-4.435-1.8079-4.3503-4.1149-0.0188-8.7759-0.0471-17.561 9e-3 -26.347-0.12241-1.9774 1.7326-3.0979 2.9379-4.3409 41.629-38.098 83.305-76.149 124.93-114.24 8.5028-7.3258 19.011-12.326 30.122-13.992z" fill="#fff"/><path d="m198.22 227.46c1.7797-1.5725 3.4463-3.9454 6.0923-3.823 17.891-9e-3 35.782 0.0188 53.672-9e-3 1.5066-0.21658 2.8625 0.39548 4.162 1.0734 1.4689 2.0527 1.4878 5.0659-0.80979 6.5254-34.736 32.429-69.614 64.718-104.41 97.09-8.5122 6.9115-13.983 17.524-14.077 28.55 0.0377 16.93-0.0942 33.87 0.0659 50.81 0.67797 10.744 10.188 19.765 20.923 20 17.26 0.0848 34.52 0 51.77 0.0471 5.3484 0.0659 10.697-1.2335 15.414-3.7476 4.9058-2.693 8.7759-6.8362 12.919-10.518 35.64-32.166 71.205-64.407 106.85-96.573 2.3352-1.9209 4.2184-4.6328 7.1281-5.7062 9.0584-0.19774 18.136-0.0471 27.213-0.0753 2.42-0.37665 4.774 1.7985 4.4821 4.2655 9e-3 8.7947 0.0847 17.608-0.0377 26.403 0.0565 1.7137-1.5348 2.7119-2.58 3.8136-40.8 37.335-81.638 74.623-122.44 111.96-11.158 11.008-26.657 17.326-42.326 17.345-16.347-0.0188-32.693-9e-3 -49.04-9e-3 -5.3202-0.11299-10.678 0.28249-15.979-0.32957-17.844-1.3465-34.925-10.48-46.036-24.492-9.4162-11.601-14.539-26.488-14.595-41.403 9e-3 -16.318-9e-3 -32.627 9e-3 -48.945 0.0942-20.81 7.6554-41.525 21.196-57.354 10.603-11.667 22.91-21.629 34.303-32.505 15.367-14.134 30.725-28.286 46.121-42.392z" fill="#fff"/></svg>
