<svg width="500" height="500" version="1.1" viewBox="0 0 500 500" xmlns="http://www.w3.org/2000/svg"><path d="m0 0h500v500h-500z" fill="#da291c"/><path d="m345.37 348.78c15.436-9.5889 33.381-14.807 51.443-16.166 14.916-1.0235 30.529 0.6208 43.851 7.844 9.2114 4.8406 17.424 12.349 21.326 22.173 4.203 10.327 3.2299 22.114-0.51174 32.424-5.2517 13.205-15.344 23.851-26.342 32.534-16.72 12.903-37.164 21.686-58.448 22.366-12.785 0.15101-26.166-1.5772-37.24-8.4228-8.2299-5.0168-14.379-13.347-16.527-22.768-3.0705-12.685 0.46141-26.275 7.802-36.846 8.3305-12.307 20.671-21.141 33.49-28.289-12.928 4.0772-25.394 10.394-35.201 19.883-7.5 7.2232-13.314 16.25-16.426 26.2-1.5352 4.4044-1.896 9.0856-2.7181 13.649-1.7953-10.738-0.16779-21.938 4.6309-31.711 6.6191-13.809 18.154-24.656 30.872-32.869z" fill="#fff"/><g fill="#da291c"><path d="m427 378.34c-3.0935 6e-3 -6.1859 0.0216-9.2773 0.0176-2.8691 10.285-5.7643 20.562-8.625 30.848 6.25-8e-3 12.492 0.0168 18.742 0 3.708 8e-3 7.7599-0.92242 10.201-3.9258 2.0134-2.5084 3.6917-5.9492 2.5508-9.1875-0.49497-1.594-2.1226-2.2138-3.4648-2.9102 4.4044-1.6443 8.0622-6.5867 6.5605-11.377-1.1493-2.8607-4.732-3.2703-7.4082-3.4297-3.0914-0.0377-6.1858-0.0414-9.2793-0.0352zm1.8203 6.4707c1.0801-5e-3 2.1603 0.019 3.2383 0.14063 2.5923 0.43624 1.4778 4.144-0.44336 4.748-2.4161 0.73824-4.9998 0.27686-7.4746 0.36914 0.47819-1.7366 0.95484-3.4802 1.4414-5.2168 1.078 0 2.1582-0.0358 3.2383-0.041zm-2.9199 11.729c1.1892-0.0126 2.3763 0.0227 3.5508 0.23242 2.9949 0.7802 1.2736 5.017-1.0586 5.5371-2.542 0.49497-5.1511 0.19381-7.7266 0.24414 0.56208-1.9882 1.1078-3.9772 1.6699-5.957 1.1829 0.0168 2.3753-0.0441 3.5644-0.0566z"/><path d="m374.82 378.36c4.6476-0.0168 9.2869-8e-3 13.926 0-0.15101 6.854 0.10067 13.742-0.66275 20.57 3.0537-7.0973 7.0973-13.708 10.654-20.562 4.656-0.0336 9.3121-0.0168 13.977-8e-3 -2.8691 10.285-5.7634 20.562-8.6326 30.847-3.0789 8e-3 -6.1577 8e-3 -9.2366-8e-3 2.0302-7.3742 4.1275-14.723 6.1493-22.089-3.8507 7.4664-8.1963 14.664-12.173 22.055-2.4497 0.0503-4.8993 0.0671-7.3406 0.0419-8e-3 -7.5671 0.17617-15.134 0-22.693-1.4933 7.6846-4.0772 15.109-6.0319 22.685-3.0872 0.0168-6.1745 0.0168-9.2618 0 2.8775-10.277 5.755-20.562 8.6326-30.839z"/><path d="m344.04 385.96c0.7047-2.5503 1.4262-5.1007 2.156-7.651 8.4732 8e-3 16.938 0 25.411 8e-3 -0.72987 2.5-1.4597 5-2.0722 7.5336-2.6426 0.1594-5.2852 0.13423-7.9278 0.10906-2.1728 7.7433-4.3372 15.487-6.4849 23.238-3.2466 8e-3 -6.4933 8e-3 -9.7399 8e-3 2.156-7.7517 4.3205-15.495 6.4849-23.238-2.6174 0-5.2181-8e-3 -7.8272-8e-3z"/></g><path d="m30.235 204.47c72.961-54.673 145.93-109.35 218.9-164.03 72.961 54.673 145.94 109.32 218.89 164-72.945 54.656-145.87 109.32-218.82 163.98-72.995-54.648-145.99-109.29-218.98-163.95z" fill="#fff"/><path d="m166.59 132.39c19.052 0 38.104-8e-3 57.156 0 8.4648 29.891 16.829 59.799 25.352 89.673 8.7164-29.824 16.988-59.79 25.529-89.664 19.035-0.0168 38.079-8e-3 57.114-8e-3 8e-3 48.07-8e-3 96.141 8e-3 144.21-14.169 0.0335-28.339 0-42.508 0.0168 0.0671-22.324-0.32719-44.656 0.64597-66.963 0.62919-8.6997 1.8708-17.357 2.2148-26.065-9.0604 30.931-17.609 62.022-26.46 93.02-10.965 8e-3 -21.938 8e-3 -32.903 0-8.8591-30.998-17.492-62.072-26.51-93.012 0.36913 9.2953 1.9295 18.523 2.1309 27.844 1.2836 21.703 0.54531 43.448 0.72148 65.176-14.161 0-28.322-8e-3 -42.492 0-0.0168-48.079-8e-3 -96.149 0-144.23z" fill="#da291c"/></svg>
