<svg width="500" height="500" version="1.1" viewBox="0 0 500 500" xmlns="http://www.w3.org/2000/svg"><path d="m0 0h500v500h-500z" fill="#172f59"/><path d="m500 207.79-500 288.6v3.6074h33.559l466.44-269.1z" fill="#fff"/><path d="m418.15 54.258c-5.1228-0.24574-10.427 3.6528-10.427 3.6528s-340.03 197.94-353.59 205.55c-13.556 7.3903-11.423 22.183-11.423 22.183v157.4l383.28-219.7v-162.45c-1.7682-4.8454-4.7633-6.4939-7.8368-6.6413zm-28.292 36.329v68.475l-51.006 28.425v-68.475zm-66.018 37.856v68.475l-50.938 28.492v-68.407zm-66.15 37.856v68.475l-50.807 28.292v-68.276zm-66.082 37.79v68.476l-50.675 28.425v-68.475zm-63.756 34.668v68.407l-50.938 28.359v-68.476z" fill="#fff"/></svg>
