<?xml version="1.0" encoding="UTF-8" ?>
<!DOCTYPE svg PUBLIC "-//W3C//DTD SVG 1.1//EN" "http://www.w3.org/Graphics/SVG/1.1/DTD/svg11.dtd">
<svg width="335pt" height="335pt" viewBox="0 0 335 335" version="1.1" xmlns="http://www.w3.org/2000/svg">
<path fill="#c8102e" opacity="1.00" d=" M 0.00 0.00 L 335.00 0.00 L 335.00 335.00 L 0.00 335.00 L 0.00 0.00 Z" />
<path fill="#ffffff" opacity="1.00" d=" M 62.35 248.89 C 62.37 190.11 62.34 131.33 62.36 72.55 C 75.31 72.57 88.25 72.55 101.19 72.56 C 101.17 120.47 101.19 168.38 101.19 216.28 C 129.85 216.34 158.52 216.17 187.18 216.37 C 187.07 227.21 187.16 238.05 187.13 248.90 C 145.54 248.90 103.94 248.91 62.35 248.89 Z" />
<path fill="#ffffff" opacity="1.00" d=" M 243.44 76.04 C 252.74 76.05 262.04 76.04 271.34 76.05 C 271.34 133.67 271.34 191.28 271.34 248.90 C 259.63 248.90 247.93 248.91 236.22 248.90 C 236.23 211.53 236.23 174.17 236.22 136.81 C 221.72 136.80 207.23 136.81 192.73 136.80 C 192.73 127.99 192.75 119.18 192.72 110.37 C 206.40 110.58 221.35 108.43 231.76 98.76 C 238.38 92.98 242.12 84.62 243.44 76.04 Z" />
</svg>
