<?xml version="1.0" encoding="UTF-8" ?>
<!DOCTYPE svg PUBLIC "-//W3C//DTD SVG 1.1//EN" "http://www.w3.org/Graphics/SVG/1.1/DTD/svg11.dtd">
<svg width="335pt" height="335pt" viewBox="0 0 335 335" version="1.1" xmlns="http://www.w3.org/2000/svg">
<path fill="#00a6d6" opacity="1.00" d=" M 0.00 0.00 L 335.00 0.00 L 335.00 335.00 L 0.00 335.00 L 0.00 0.00 Z" />
<path fill="#ffffff" opacity="1.00" d=" M 29.06 57.00 C 40.04 56.99 51.02 57.00 62.00 57.00 C 62.01 97.75 61.99 138.50 62.01 179.25 C 86.33 179.25 110.66 179.25 134.99 179.25 C 135.01 188.50 135.00 197.75 135.00 207.00 C 99.69 207.00 64.38 207.00 29.06 207.00 C 29.06 157.00 29.07 107.00 29.06 57.00 Z" />
<path fill="#ffffff" opacity="1.00" d=" M 244.26 57.32 C 256.82 56.25 270.17 58.84 280.23 66.79 C 290.57 74.69 295.90 87.21 299.36 99.39 C 303.98 119.90 303.97 141.32 300.58 162.01 C 297.69 176.73 291.58 191.97 279.04 201.05 C 261.88 213.00 237.10 213.05 219.89 201.17 C 208.95 193.25 203.06 180.27 199.70 167.54 C 195.92 152.61 195.83 137.08 196.37 121.79 C 197.16 107.89 199.91 93.85 206.60 81.52 C 213.46 67.27 228.61 58.07 244.26 57.32 Z" />
<path fill="#ffffff" opacity="1.00" d=" M 157.26 60.09 C 165.17 59.90 173.09 60.05 181.00 60.00 C 181.00 109.00 181.00 158.00 181.00 207.00 C 171.04 207.00 161.08 207.01 151.12 206.99 C 151.12 175.21 151.13 143.42 151.12 111.63 C 138.77 111.63 126.41 111.60 114.06 111.65 C 114.06 104.18 114.07 96.71 114.06 89.24 C 125.46 89.24 137.93 87.76 146.71 79.73 C 152.65 74.82 156.00 67.57 157.26 60.09 Z" />
<path fill="#00a6d6" opacity="1.00" d=" M 244.44 82.63 C 251.27 81.02 258.98 82.95 263.80 88.18 C 269.92 94.64 271.66 103.76 272.89 112.26 C 274.40 124.80 274.06 137.48 273.39 150.08 C 272.43 159.71 270.78 169.90 264.72 177.77 C 257.90 186.84 242.58 187.46 235.12 178.88 C 230.53 173.31 228.03 166.30 226.83 159.26 C 224.82 146.94 225.01 134.40 225.22 121.96 C 225.81 112.00 226.75 101.60 231.78 92.74 C 234.48 87.94 238.85 83.69 244.44 82.63 Z" />
<path fill="#ffffff" opacity="1.00" d=" M 31.00 234.00 C 34.84 234.24 38.87 233.46 42.58 234.39 C 49.95 245.82 56.97 257.48 64.23 268.99 C 64.39 257.33 64.27 245.67 64.31 234.01 C 67.87 233.99 71.44 233.99 75.00 234.00 C 75.00 251.33 75.00 268.66 75.00 286.00 C 71.16 285.74 67.10 286.56 63.40 285.59 C 56.05 274.19 49.02 262.56 41.76 251.10 C 41.73 262.73 41.76 274.36 41.75 285.99 C 38.17 286.00 34.58 286.00 31.00 286.00 C 31.00 268.67 31.00 251.33 31.00 234.00 Z" />
<path fill="#ffffff" opacity="1.00" d=" M 181.75 234.01 C 185.19 233.99 188.62 234.00 192.06 234.01 C 192.01 251.34 192.03 268.67 192.01 286.00 C 188.76 286.00 185.50 286.00 182.24 285.99 C 182.25 284.39 182.26 282.79 182.28 281.19 C 177.20 289.32 164.11 288.54 158.50 281.41 C 154.41 275.98 153.32 268.70 154.48 262.11 C 155.41 256.89 158.25 251.68 163.15 249.27 C 169.22 245.85 177.69 247.25 181.79 253.06 C 181.70 246.71 181.77 240.36 181.75 234.01 Z" />
<path fill="#ffffff" opacity="1.00" d=" M 97.45 247.62 C 103.18 246.29 109.50 247.27 114.39 250.61 C 122.97 256.91 124.11 270.11 118.83 278.87 C 111.71 289.96 92.44 289.77 85.84 278.23 C 82.18 271.63 82.14 263.15 85.58 256.45 C 87.92 251.87 92.49 248.74 97.45 247.62 Z" />
<path fill="#ffffff" opacity="1.00" d=" M 138.09 255.32 C 140.85 249.88 146.79 246.25 152.97 247.20 C 153.00 250.45 153.01 253.71 153.00 256.97 C 149.75 256.77 146.17 256.43 143.28 258.25 C 139.95 260.23 138.91 264.42 138.77 268.03 C 138.56 274.02 138.74 280.00 138.69 285.99 C 135.13 286.00 131.56 286.00 128.00 286.00 C 128.00 273.33 128.00 260.67 128.00 248.00 C 131.39 248.00 134.78 248.00 138.18 248.00 C 138.15 250.44 138.13 252.88 138.09 255.32 Z" />
<path fill="#00a6d6" opacity="1.00" d=" M 99.33 255.49 C 102.19 254.39 105.74 254.82 108.00 256.99 C 110.81 259.46 111.59 263.44 111.62 267.03 C 111.63 271.09 110.65 275.68 106.96 278.00 C 102.09 281.31 94.80 277.82 94.03 272.05 C 92.73 266.31 93.13 258.21 99.33 255.49 Z" />
<path fill="#00a6d6" opacity="1.00" d=" M 170.43 255.63 C 175.52 253.66 181.16 257.72 181.69 262.94 C 182.38 267.87 182.35 273.80 178.56 277.54 C 174.30 281.13 167.15 278.97 165.57 273.62 C 163.37 267.66 163.72 258.48 170.43 255.63 Z" />
</svg>
