<?xml version="1.0" encoding="UTF-8" ?>
<!DOCTYPE svg PUBLIC "-//W3C//DTD SVG 1.1//EN" "http://www.w3.org/Graphics/SVG/1.1/DTD/svg11.dtd">
<svg width="335pt" height="335pt" viewBox="0 0 335 335" version="1.1" xmlns="http://www.w3.org/2000/svg">
<path fill="#00a6d6" opacity="1.00" d=" M 0.00 0.00 L 335.00 0.00 L 335.00 335.00 L 0.00 335.00 L 0.00 0.00 Z" />
<path fill="#ffffff" opacity="1.00" d=" M 29.06 57.00 C 40.04 57.00 51.02 57.00 62.00 57.00 C 62.00 97.75 62.00 138.50 62.00 179.25 C 86.33 179.25 110.66 179.26 134.99 179.24 C 135.01 188.50 135.00 197.75 135.00 207.00 C 99.69 207.00 64.37 207.00 29.06 207.00 C 29.06 157.00 29.07 107.00 29.06 57.00 Z" />
<path fill="#ffffff" opacity="1.00" d=" M 240.51 57.73 C 253.94 55.87 268.57 57.93 279.59 66.30 C 289.94 73.86 295.43 86.09 298.98 98.04 C 303.42 115.63 303.65 134.01 302.03 151.99 C 300.49 166.38 296.68 181.07 287.70 192.70 C 280.15 202.48 268.28 208.36 256.09 209.57 C 239.96 211.55 221.90 206.58 211.71 193.27 C 200.79 179.15 197.23 160.90 196.32 143.45 C 195.79 126.37 196.01 108.81 201.77 92.51 C 204.96 83.89 209.07 75.24 216.02 68.99 C 222.75 62.78 231.46 58.92 240.51 57.73 Z" />
<path fill="#ffffff" opacity="1.00" d=" M 157.27 60.08 C 165.18 59.90 173.09 60.04 181.00 60.00 C 181.00 109.00 181.00 158.00 181.00 207.00 C 171.04 207.00 161.08 207.00 151.12 207.00 C 151.13 175.21 151.13 143.42 151.12 111.63 C 138.77 111.63 126.41 111.59 114.06 111.65 C 114.06 104.18 114.07 96.71 114.06 89.24 C 125.47 89.24 137.95 87.76 146.73 79.71 C 152.67 74.82 155.98 67.55 157.27 60.08 Z" />
<path fill="#00a6d6" opacity="1.00" d=" M 244.44 82.63 C 250.80 81.18 257.98 82.63 262.79 87.21 C 268.90 92.82 271.13 101.22 272.41 109.13 C 274.49 122.32 274.07 135.74 273.46 149.04 C 272.58 159.01 270.97 169.58 264.74 177.76 C 257.76 187.04 241.91 187.47 234.66 178.32 C 228.33 170.31 226.51 159.90 225.68 149.99 C 225.00 140.32 224.96 130.62 225.27 120.94 C 225.92 111.07 226.96 100.76 232.15 92.11 C 234.86 87.57 239.11 83.65 244.44 82.63 Z" />
<path fill="#ffffff" opacity="1.00" d=" M 43.57 235.43 C 50.27 233.19 57.92 233.67 64.27 236.75 C 69.36 239.32 72.25 244.76 72.43 250.36 C 68.85 250.38 65.28 250.38 61.71 250.37 C 60.94 243.00 51.67 240.92 46.04 244.11 C 43.25 245.69 42.66 250.65 45.77 252.18 C 53.31 255.93 62.66 255.28 69.42 260.70 C 75.70 265.74 75.31 276.21 69.61 281.53 C 64.93 285.93 58.14 287.03 51.95 286.95 C 45.28 286.79 37.95 284.71 33.97 278.95 C 31.73 276.14 31.28 272.49 30.98 269.03 C 34.55 268.99 38.12 268.99 41.69 269.00 C 42.03 272.60 43.97 276.28 47.62 277.42 C 52.16 278.87 57.92 279.12 61.67 275.69 C 64.23 273.51 63.30 269.02 60.31 267.69 C 52.91 263.91 43.79 264.18 37.07 258.90 C 33.19 255.92 32.05 250.52 33.20 245.93 C 34.34 240.82 38.77 237.05 43.57 235.43 Z" />
<path fill="#ffffff" opacity="1.00" d=" M 147.75 235.00 C 151.17 235.00 154.58 235.00 158.00 235.00 C 158.00 252.04 158.00 269.08 158.00 286.12 C 154.69 286.12 151.39 286.13 148.09 286.13 C 148.36 284.91 148.91 282.47 149.18 281.25 C 146.74 282.22 145.49 285.02 142.92 285.87 C 136.47 288.33 128.24 286.68 124.04 280.96 C 118.70 273.08 118.60 261.78 124.16 254.00 C 129.73 246.65 142.11 246.11 147.82 253.59 C 147.68 247.40 147.78 241.20 147.75 235.00 Z" />
<path fill="#ffffff" opacity="1.00" d=" M 79.00 249.00 C 82.42 249.00 85.83 249.00 89.25 249.00 C 89.29 256.04 89.17 263.07 89.29 270.11 C 89.43 272.88 89.54 276.26 92.07 278.00 C 96.17 280.42 102.83 278.36 103.36 273.15 C 104.31 265.15 103.58 257.04 103.81 249.00 C 107.23 249.00 110.64 249.00 114.06 249.00 C 114.08 261.38 114.03 273.75 113.99 286.12 C 110.75 286.12 107.50 286.12 104.26 286.13 C 104.25 284.38 104.25 282.65 104.26 280.91 C 101.88 283.74 98.91 286.41 95.05 286.79 C 89.12 287.91 81.34 285.70 79.93 279.04 C 78.15 269.15 79.34 259.00 79.00 249.00 Z" />
<path fill="#00a6d6" opacity="1.00" d=" M 136.21 256.29 C 139.14 255.27 142.78 255.66 144.96 258.05 C 147.70 260.55 148.07 264.49 148.06 267.98 C 147.93 270.95 147.49 274.11 145.61 276.54 C 143.33 279.63 138.64 280.18 135.37 278.46 C 130.93 275.67 129.98 269.81 130.53 264.98 C 130.83 261.37 132.79 257.76 136.21 256.29 Z" />
</svg>
