<svg width="335pt" height="335pt" version="1.1" viewBox="0 0 335 335" xmlns="http://www.w3.org/2000/svg"><path d="m0 0h335v335h-335v-335z" fill="#97d700"/><path d="m42.22 92.82c0.05 49.78 0.05975 99.57-0.01025 149.35 35.19-0.08 70.38-0.0898 105.57 0.0103-0.04-9.16-0.0795-18.32 0.0205-27.48-24.27 0.12-48.54 0.0298-72.81 0.0498-0.05-40.64 0.07994-81.28-0.06006-121.91-10.91 0.03-21.81 0.07096-32.71-0.01904zm227.16 2.9297c-1.16 6.68-3.7208 13.41-8.8008 18.1-8.7 9.17-22.15 11.21-34.22 11.03 0.05 7.4 0.05 14.81 0 22.22 12.32-0.08 24.641 2e-4 36.951-0.0498-0.08 31.7 0.0402 63.41-0.0498 95.12 9.83-0.07 19.669-0.0998 29.509 0.0103-0.04-48.81-0.0595-97.62 0.0205-146.43-7.81 0.09-15.61 0.08-23.41 0zm-72.06 0.0498c-7.86 0.01-15.711-0.0095-23.571 0.02051-1.05 7.33-4.3196 14.51-10.08 19.32-8.74 8.24-21.421 9.8393-32.921 9.7793 0.02 7.38 0.01 14.76 0 22.14 12.3 0 24.601 0.0309 36.911-0.019 0 31.69 0.0195 63.39-0.0205 95.08 9.9 0 19.791 2.6e-4 29.681 0.0103-0.04-48.78-0.04-97.551 0-146.33z"/></svg>
