<svg width="161pt" height="161pt" version="1.1" viewBox="0 0 161 161" xmlns="http://www.w3.org/2000/svg"><path d="m0 0h161v161h-161v-161z" fill="#b0b3d9"/><path d="m121.84 44.59c-7.9206 0.09879-15.771 3.45-20.19 10.148-3.6921 5.3592-4.9068 11.942-4.8786 18.347 4.5586 0.0283 9.1166 0.0101 13.666 0.0193 0.25431-4.5586 0.83853-9.532 4.0314-13.055 3.5696-4.2101 10.577-4.0404 14.542-0.48013 2.8538 2.5807 3.6447 6.8093 2.976 10.473-0.79117 4.1253-3.8711 7.3373-7.064 9.8426-7.1487 5.039-14.843 9.475-21.163 15.588-5.6418 5.4063-8.6841 13.149-8.5899 20.928 17.245 0.0188 34.481 0.0101 51.717 0.0101 0.01-4.0971 0.01-8.1846 0-12.272-11.105-0.0376-22.2 0.0475-33.304-0.0372 7.3654-10.154 20.419-13.742 28.237-23.378 5.3592-6.6684 6.1044-16.492 2.3275-24.074-4.2631-8.106-13.33-12.172-22.307-12.06zm-107.72 0.03173c-0.03764 23.923-4.63e-4 47.846-0.01932 71.77 16.916 0.0283 33.832 0.0101 50.747 0.0101 0.0095-4.4173 0.0095-8.8442 0-13.261-11.651-9e-3 -23.312-2.3e-4 -34.962-0.0101-0.0091-19.497 0.01057-38.993-0.0081-58.498-5.2556-0.0095-10.502-2.4e-4 -15.757-0.0097zm61.917 1.4031c-0.81 3.1929-1.8643 6.5175-4.3791 8.7968-4.2101 4.3702-10.596 5.2097-16.37 5.2662 0.02825 3.5602 0.01931 7.1201 0.01931 10.69 5.8866 9e-3 11.782 9e-3 17.668 0 0.02825 15.211 4.77e-4 30.422 0.01931 45.623 4.7564 9e-3 9.504 0.0101 14.26 0.0101 0.01-23.462 0.01-46.914 0-70.366-3.7392 0-7.479-4.77e-4 -11.218-0.01931z" stroke-width=".94186"/></svg>
