<?xml version="1.0" encoding="UTF-8" ?>
<!DOCTYPE svg PUBLIC "-//W3C//DTD SVG 1.1//EN" "http://www.w3.org/Graphics/SVG/1.1/DTD/svg11.dtd">
<svg width="335pt" height="335pt" viewBox="0 0 335 335" version="1.1" xmlns="http://www.w3.org/2000/svg">
<path fill="#f2a900" opacity="1.00" d=" M 0.00 0.00 L 335.00 0.00 L 335.00 335.00 L 0.00 335.00 L 0.00 0.00 Z" />
<path fill="#000000" opacity="1.00" d=" M 46.74 71.51 C 59.65 71.03 72.59 71.47 85.52 71.30 C 85.44 119.18 85.48 167.07 85.50 214.95 C 114.15 214.96 142.81 214.94 171.47 214.96 C 171.49 225.78 171.46 236.59 171.48 247.41 C 129.94 247.39 88.40 247.42 46.86 247.39 C 46.77 188.77 47.00 130.14 46.74 71.51 Z" />
<path fill="#000000" opacity="1.00" d=" M 255.26 74.76 C 265.70 74.63 276.14 74.76 286.59 74.70 C 286.58 109.36 286.61 144.02 286.58 178.68 C 294.24 178.69 301.90 178.69 309.57 178.68 C 309.57 188.25 309.56 197.83 309.57 207.41 C 301.90 207.38 294.24 207.41 286.57 207.40 C 286.62 220.74 286.57 234.08 286.60 247.42 C 275.55 247.39 264.50 247.40 253.45 247.42 C 253.47 234.07 253.43 220.73 253.47 207.39 C 229.09 207.42 204.71 207.37 180.33 207.42 C 180.34 197.26 180.35 187.09 180.32 176.93 C 180.15 174.65 182.22 173.12 183.34 171.36 C 207.30 139.16 231.41 107.05 255.26 74.76 Z" />
<path fill="#f2a900" opacity="1.00" d=" M 249.55 122.51 C 250.75 120.99 251.60 119.07 253.39 118.13 C 253.55 138.31 253.39 158.50 253.47 178.68 C 238.20 178.68 222.93 178.70 207.66 178.67 C 221.68 159.99 235.58 141.22 249.55 122.51 Z" />
</svg>
