<?xml version="1.0" encoding="UTF-8" ?>
<!DOCTYPE svg PUBLIC "-//W3C//DTD SVG 1.1//EN" "http://www.w3.org/Graphics/SVG/1.1/DTD/svg11.dtd">
<svg width="335pt" height="335pt" viewBox="0 0 335 335" version="1.1" xmlns="http://www.w3.org/2000/svg">
<path fill="#0072ce" opacity="1.00" d=" M 0.00 0.00 L 335.00 0.00 L 335.00 335.00 L 0.00 335.00 L 0.00 0.00 Z" />
<path fill="#ffffff" opacity="1.00" d=" M 43.04 70.60 C 55.97 70.60 68.90 70.59 81.83 70.60 C 81.83 118.51 81.82 166.41 81.84 214.32 C 110.49 214.33 139.15 214.33 167.81 214.32 C 167.83 225.19 167.81 236.06 167.82 246.93 C 126.23 246.94 84.63 246.93 43.04 246.93 C 43.04 188.15 43.03 129.38 43.04 70.60 Z" />
<path fill="#ffffff" opacity="1.00" d=" M 199.41 74.08 C 231.62 74.06 263.84 74.07 296.05 74.07 C 296.05 83.70 296.05 93.33 296.05 102.96 C 272.23 103.03 248.40 102.84 224.58 103.05 C 222.46 116.37 219.67 129.59 217.78 142.95 C 223.69 137.35 230.68 132.57 238.77 130.86 C 252.36 127.86 267.41 129.17 279.42 136.57 C 290.69 143.15 298.65 154.48 302.35 166.87 C 306.40 180.67 306.73 195.85 301.68 209.44 C 296.16 224.21 284.94 236.86 270.67 243.70 C 255.73 251.23 238.16 251.52 222.07 248.07 C 207.57 245.03 193.70 237.05 185.50 224.47 C 179.61 216.04 177.18 205.72 176.87 195.56 C 188.57 195.55 200.27 195.54 211.98 195.56 C 212.80 202.28 215.33 208.97 220.23 213.78 C 226.34 219.90 235.45 222.21 243.89 221.29 C 252.97 220.32 261.19 214.41 265.53 206.46 C 271.10 196.77 271.69 184.58 267.84 174.18 C 265.00 166.72 259.03 160.53 251.56 157.68 C 244.64 155.32 237.01 155.24 229.98 157.17 C 224.15 158.76 219.38 162.88 215.69 167.53 C 214.85 168.29 214.29 169.82 212.93 169.64 C 202.74 169.65 192.55 169.64 182.36 169.63 C 188.05 137.78 193.73 105.93 199.41 74.08 Z" />
</svg>
