<?xml version="1.0" encoding="UTF-8" ?>
<!DOCTYPE svg PUBLIC "-//W3C//DTD SVG 1.1//EN" "http://www.w3.org/Graphics/SVG/1.1/DTD/svg11.dtd">
<svg width="335pt" height="335pt" viewBox="0 0 335 335" version="1.1" xmlns="http://www.w3.org/2000/svg">
<path fill="#a45a2a" opacity="1.00" d=" M 0.00 0.00 L 335.00 0.00 L 335.00 335.00 L 0.00 335.00 L 0.00 0.00 Z" />
<path fill="#ffffff" opacity="1.00" d=" M 42.72 70.92 C 55.64 70.91 68.56 70.94 81.48 70.90 C 81.60 118.81 81.50 166.72 81.53 214.62 C 110.19 214.66 138.85 214.63 167.52 214.64 C 167.54 225.51 167.54 236.39 167.51 247.27 C 125.92 247.26 84.32 247.28 42.72 247.26 C 42.72 188.48 42.71 129.70 42.72 70.92 Z" />
<path fill="#ffffff" opacity="1.00" d=" M 181.78 74.50 C 221.17 74.25 260.56 74.47 299.95 74.39 C 299.96 84.46 300.02 94.54 299.92 104.62 C 281.23 120.93 269.06 143.27 259.98 166.04 C 250.20 191.99 244.03 219.48 243.37 247.26 C 230.84 247.27 218.32 247.27 205.79 247.26 C 209.48 195.81 231.28 146.64 263.86 107.00 C 236.52 106.99 209.18 107.01 181.83 106.99 C 181.79 96.16 181.89 85.33 181.78 74.50 Z" />
</svg>
