<?xml version="1.0" encoding="UTF-8" ?>
<!DOCTYPE svg PUBLIC "-//W3C//DTD SVG 1.1//EN" "http://www.w3.org/Graphics/SVG/1.1/DTD/svg11.dtd">
<svg width="335pt" height="335pt" viewBox="0 0 335 335" version="1.1" xmlns="http://www.w3.org/2000/svg">
<path fill="#ec86d0" opacity="1.00" d=" M 0.00 0.00 L 335.00 0.00 L 335.00 335.00 L 0.00 335.00 L 0.00 0.00 Z" />
<path fill="#ffffff" opacity="1.00" d=" M 42.10 70.80 C 55.03 70.79 67.96 70.79 80.89 70.80 C 80.94 118.71 80.85 166.62 80.93 214.53 C 109.58 214.57 138.23 214.52 166.88 214.55 C 166.89 225.46 166.90 236.38 166.88 247.29 C 125.28 247.30 83.69 247.31 42.10 247.29 C 42.07 188.46 42.07 129.63 42.10 70.80 Z" />
<path fill="#ffffff" opacity="1.00" d=" M 205.06 79.94 C 219.99 71.29 238.12 69.22 254.98 72.01 C 270.23 74.78 285.01 83.52 292.79 97.23 C 300.50 110.65 300.27 128.46 291.17 141.15 C 286.68 147.37 279.85 151.35 272.76 153.93 C 282.70 156.09 292.25 161.42 298.02 169.98 C 305.45 180.89 306.91 194.93 304.47 207.67 C 302.15 220.04 294.23 230.90 284.01 238.03 C 267.75 249.07 247.10 252.18 227.88 249.61 C 213.35 247.82 198.70 242.35 188.45 231.56 C 180.45 223.48 175.64 212.43 175.18 201.07 C 174.23 188.85 177.00 175.69 185.52 166.49 C 191.41 160.00 199.53 155.97 207.96 153.93 C 201.28 151.78 194.70 148.45 190.26 142.84 C 182.92 133.75 180.94 121.31 182.84 110.00 C 185.00 97.20 194.03 86.35 205.06 79.94 Z" />
<path fill="#ec86d0" opacity="1.00" d=" M 236.49 97.62 C 245.80 96.43 256.55 98.71 262.20 106.83 C 268.24 115.96 268.23 130.05 259.62 137.61 C 252.55 143.55 242.61 144.87 233.76 143.24 C 226.59 141.79 219.30 137.79 216.10 130.92 C 213.41 124.73 213.53 117.39 216.11 111.18 C 219.67 103.24 228.13 98.64 236.49 97.62 Z" />
<path fill="#ec86d0" opacity="1.00" d=" M 231.38 168.60 C 239.67 166.62 248.91 167.14 256.40 171.47 C 263.59 175.42 268.99 182.79 270.03 191.00 C 271.40 200.38 268.26 210.67 260.97 216.94 C 249.90 226.61 232.09 226.43 220.67 217.45 C 209.94 208.95 207.08 192.47 213.72 180.64 C 217.52 174.29 224.34 170.35 231.38 168.60 Z" />
</svg>
