<?xml version="1.0" encoding="UTF-8" ?>
<!DOCTYPE svg PUBLIC "-//W3C//DTD SVG 1.1//EN" "http://www.w3.org/Graphics/SVG/1.1/DTD/svg11.dtd">
<svg width="335pt" height="335pt" viewBox="0 0 335 335" version="1.1" xmlns="http://www.w3.org/2000/svg">
<path fill="#fe5000" opacity="1.00" d=" M 0.00 0.00 L 335.00 0.00 L 335.00 335.00 L 0.00 335.00 L 0.00 0.00 Z" />
<path fill="#ffffff" opacity="1.00" d=" M 38.00 47.00 C 50.94 47.00 63.88 46.99 76.81 47.01 C 76.81 95.38 76.81 143.75 76.82 192.12 C 105.54 192.13 134.27 192.13 163.00 192.12 C 163.01 203.08 163.00 214.04 163.00 225.00 C 121.33 225.00 79.67 225.00 38.00 225.00 C 38.00 165.67 38.00 106.33 38.00 47.00 Z" />
<path fill="#ffffff" opacity="1.00" d=" M 187.74 63.68 C 199.65 52.09 216.51 46.10 233.06 47.14 C 247.00 47.35 261.14 51.87 271.52 61.42 C 281.59 70.24 288.10 82.50 291.80 95.23 C 295.79 109.79 296.95 124.99 296.98 140.03 C 296.32 160.99 291.97 182.55 280.20 200.23 C 271.43 213.20 258.11 223.78 242.46 226.66 C 225.34 229.97 206.37 227.51 192.20 216.78 C 180.39 208.18 173.80 194.01 172.15 179.74 C 183.29 179.72 194.44 179.81 205.58 179.70 C 207.26 185.80 210.05 191.81 214.95 195.99 C 222.54 202.94 235.01 202.95 243.22 197.10 C 249.29 192.27 253.77 185.63 256.48 178.39 C 260.10 168.58 261.86 158.10 262.29 147.68 C 258.55 152.39 254.63 157.15 249.43 160.33 C 240.82 165.93 230.21 167.66 220.09 167.26 C 200.87 166.33 182.11 154.50 174.30 136.69 C 164.11 112.63 168.74 82.14 187.74 63.68 Z" />
<path fill="#fe5000" opacity="1.00" d=" M 224.30 77.20 C 232.80 74.87 242.46 77.07 248.89 83.16 C 259.29 93.18 261.53 109.56 256.67 122.79 C 254.02 130.06 248.39 136.45 240.98 139.01 C 232.19 141.96 221.57 140.98 214.57 134.48 C 205.66 126.03 203.14 112.62 205.08 100.88 C 206.79 90.43 213.74 80.17 224.30 77.20 Z" />
<path fill="#ffffff" opacity="1.00" d=" M 38.00 238.01 C 41.48 238.32 45.41 237.29 48.61 238.53 C 55.29 249.06 61.65 259.82 68.24 270.41 C 68.27 259.61 68.25 248.81 68.25 238.01 C 71.50 238.00 74.75 238.00 78.00 238.00 C 78.00 254.00 78.00 270.00 78.00 285.99 C 74.53 285.66 70.55 286.74 67.39 285.46 C 60.69 274.96 54.38 264.19 47.76 253.64 C 47.85 264.42 47.77 275.21 47.82 285.99 C 44.54 286.00 41.27 286.00 38.00 286.00 C 38.00 270.00 38.00 254.00 38.00 238.01 Z" />
<path fill="#ffffff" opacity="1.00" d=" M 183.31 238.01 C 186.56 237.99 189.81 237.99 193.06 238.00 C 193.00 254.04 193.09 270.08 192.99 286.12 C 189.91 286.13 186.82 286.13 183.74 286.12 C 183.75 284.61 183.77 283.10 183.79 281.60 C 178.41 289.75 164.59 288.34 160.05 280.00 C 155.63 272.38 155.85 261.63 161.86 254.90 C 167.38 248.94 178.30 248.75 183.28 255.52 C 183.27 249.68 183.35 243.84 183.31 238.01 Z" />
<path fill="#ffffff" opacity="1.00" d=" M 101.47 250.56 C 108.19 249.04 116.09 250.98 120.36 256.64 C 124.68 262.75 125.07 271.28 121.92 277.97 C 116.48 289.32 98.08 290.09 91.19 279.82 C 86.68 272.75 86.95 262.79 92.11 256.11 C 94.41 253.19 97.90 251.41 101.47 250.56 Z" />
<path fill="#ffffff" opacity="1.00" d=" M 140.86 257.61 C 143.25 252.74 148.40 249.39 153.92 250.12 C 154.01 253.15 154.01 256.18 154.00 259.22 C 150.94 258.99 147.41 258.60 144.98 260.93 C 142.04 262.96 141.62 266.82 141.47 270.11 C 141.37 275.40 141.48 280.70 141.44 286.00 C 138.29 286.00 135.15 286.00 132.00 286.00 C 132.00 274.33 132.00 262.67 132.00 251.00 C 134.97 251.00 137.95 251.00 140.92 251.00 C 140.91 253.20 140.88 255.40 140.86 257.61 Z" />
<path fill="#fe5000" opacity="1.00" d=" M 102.23 258.19 C 105.56 256.53 110.31 257.25 112.39 260.54 C 115.15 265.34 115.12 271.60 112.56 276.48 C 109.38 281.64 100.35 280.56 98.63 274.67 C 96.89 269.24 96.93 261.66 102.23 258.19 Z" />
<path fill="#fe5000" opacity="1.00" d=" M 171.50 258.46 C 173.69 257.33 176.47 257.32 178.72 258.27 C 182.30 260.08 183.50 264.36 183.58 268.08 C 183.60 271.65 183.09 275.81 180.10 278.17 C 177.90 280.16 174.48 280.29 171.87 279.11 C 168.91 277.53 167.38 274.25 166.99 271.05 C 166.30 266.51 167.27 261.02 171.50 258.46 Z" />
</svg>
