<?xml version="1.0" encoding="UTF-8" ?>
<!DOCTYPE svg PUBLIC "-//W3C//DTD SVG 1.1//EN" "http://www.w3.org/Graphics/SVG/1.1/DTD/svg11.dtd">
<svg width="335pt" height="335pt" viewBox="0 0 335 335" version="1.1" xmlns="http://www.w3.org/2000/svg">
<path fill="#fe5000" opacity="1.00" d=" M 0.00 0.00 L 335.00 0.00 L 335.00 335.00 L 0.00 335.00 L 0.00 0.00 Z" />
<path fill="#ffffff" opacity="1.00" d=" M 38.00 47.00 C 50.94 47.00 63.88 46.99 76.82 47.01 C 76.81 95.38 76.81 143.75 76.81 192.12 C 105.54 192.13 134.27 192.13 163.00 192.12 C 163.01 203.08 163.00 214.04 163.00 225.00 C 121.33 225.00 79.67 225.00 38.00 225.00 C 38.00 165.67 38.00 106.33 38.00 47.00 Z" />
<path fill="#ffffff" opacity="1.00" d=" M 198.49 55.49 C 212.73 46.70 230.43 45.38 246.54 48.74 C 259.10 51.25 270.33 58.68 278.37 68.54 C 287.80 80.41 292.99 95.23 294.88 110.17 C 298.14 131.37 297.85 153.35 292.01 174.09 C 287.22 191.21 277.80 207.71 262.90 217.93 C 250.60 226.87 234.66 229.17 219.84 227.51 C 206.37 226.08 193.29 219.80 184.39 209.47 C 177.32 201.15 173.50 190.49 172.14 179.75 C 183.29 179.73 194.44 179.79 205.59 179.71 C 207.26 185.84 210.09 191.87 215.01 196.05 C 222.60 202.92 235.01 202.94 243.20 197.11 C 249.88 191.85 254.53 184.36 257.23 176.35 C 260.28 167.14 261.89 157.47 262.31 147.79 C 258.97 151.63 255.87 155.79 251.68 158.77 C 243.56 164.98 233.11 167.26 223.06 167.34 C 203.04 167.49 182.98 155.72 174.59 137.33 C 168.51 123.48 167.48 107.59 171.20 92.97 C 174.89 77.54 184.70 63.51 198.49 55.49 Z" />
<path fill="#fe5000" opacity="1.00" d=" M 224.23 77.21 C 232.29 75.01 241.41 76.80 247.83 82.23 C 258.11 91.09 261.16 106.21 257.84 119.01 C 255.78 127.80 249.69 136.02 240.95 139.02 C 233.95 141.29 225.90 141.28 219.29 137.80 C 212.17 134.01 207.65 126.58 205.78 118.93 C 203.41 109.32 204.06 98.72 208.90 89.96 C 212.18 84.01 217.63 79.10 224.23 77.21 Z" />
<path fill="#ffffff" opacity="1.00" d=" M 41.59 244.62 C 45.35 238.96 52.54 236.77 59.05 237.07 C 64.65 237.32 70.81 238.81 74.45 243.43 C 76.56 245.91 77.07 249.24 77.47 252.37 C 74.01 252.38 70.55 252.38 67.09 252.36 C 66.47 245.46 57.62 243.57 52.43 246.47 C 49.79 247.96 49.08 252.42 51.90 254.04 C 59.12 257.79 68.29 256.95 74.73 262.33 C 80.34 266.96 80.28 276.13 75.40 281.26 C 71.20 285.60 64.83 286.95 59.00 286.97 C 52.74 286.91 45.84 285.44 41.57 280.49 C 39.03 277.66 38.20 273.83 38.02 270.15 C 41.41 270.12 44.81 270.12 48.20 270.13 C 48.65 273.52 50.53 277.03 54.04 278.02 C 58.75 279.50 65.13 279.55 68.28 275.10 C 69.24 272.80 68.34 269.98 66.07 268.86 C 58.79 264.99 49.39 265.71 43.16 259.78 C 38.87 256.06 38.85 249.25 41.59 244.62 Z" />
<path fill="#ffffff" opacity="1.00" d=" M 153.56 238.00 C 156.71 238.00 159.85 238.00 163.00 238.00 C 163.00 254.04 163.00 270.08 163.00 286.12 C 159.99 286.12 156.99 286.12 153.99 286.12 C 154.00 284.65 154.02 283.17 154.05 281.70 C 148.92 289.43 135.97 288.42 131.37 280.64 C 126.70 273.14 126.74 262.46 132.28 255.43 C 137.43 248.97 148.63 248.58 153.54 255.54 C 153.50 249.70 153.60 243.85 153.56 238.00 Z" />
<path fill="#ffffff" opacity="1.00" d=" M 87.00 251.00 C 90.23 251.00 93.46 251.00 96.69 251.01 C 96.71 257.64 96.64 264.26 96.69 270.89 C 96.87 273.57 96.90 276.90 99.39 278.57 C 103.19 280.74 109.43 278.88 109.87 274.05 C 110.88 266.42 110.17 258.69 110.36 251.02 C 113.59 250.99 116.83 250.99 120.06 251.00 C 120.08 262.71 120.02 274.42 119.99 286.12 C 116.95 286.12 113.91 286.12 110.87 286.12 C 110.88 284.44 110.89 282.76 110.92 281.08 C 106.69 287.65 96.79 288.93 90.72 284.31 C 87.86 281.32 87.13 277.00 87.07 273.02 C 86.90 265.68 87.05 258.34 87.00 251.00 Z" />
<path fill="#fe5000" opacity="1.00" d=" M 142.34 258.34 C 144.58 257.31 147.46 257.27 149.60 258.56 C 154.57 262.26 154.61 269.52 152.79 274.88 C 151.48 279.17 145.99 281.24 142.16 278.92 C 138.27 276.46 137.29 271.39 137.59 267.12 C 137.84 263.72 139.01 259.89 142.34 258.34 Z" />
</svg>
