<?xml version="1.0" encoding="UTF-8" ?>
<!DOCTYPE svg PUBLIC "-//W3C//DTD SVG 1.1//EN" "http://www.w3.org/Graphics/SVG/1.1/DTD/svg11.dtd">
<svg width="184pt" height="184pt" viewBox="0 0 184 184" version="1.1" xmlns="http://www.w3.org/2000/svg">
<path fill="#78b3e0" opacity="1.00" d=" M 0.00 0.00 L 184.00 0.00 L 184.00 184.00 L 0.00 184.00 L 0.00 0.00 Z" />
<path fill="#ffffff" opacity="1.00" d=" M 23.32 43.10 C 40.21 42.96 57.11 43.10 74.00 43.03 C 80.97 42.94 88.20 44.77 93.64 49.29 C 105.11 58.40 106.33 77.72 96.13 88.20 C 93.77 90.59 90.79 92.20 87.76 93.57 C 92.57 95.15 96.83 98.46 98.84 103.19 C 104.12 114.46 99.98 127.79 105.68 138.92 C 98.68 138.57 91.48 139.43 84.61 138.51 C 81.23 128.85 83.36 118.07 79.42 108.57 C 77.55 103.99 72.59 101.68 67.87 101.53 C 60.06 101.30 52.24 101.48 44.42 101.44 C 44.39 113.92 44.43 126.40 44.40 138.87 C 37.39 138.88 30.37 138.90 23.35 138.86 C 23.33 106.94 23.39 75.02 23.32 43.10 Z" />
<path fill="#ffffff" opacity="1.00" d=" M 139.07 44.94 C 144.08 44.91 149.09 44.92 154.10 44.94 C 154.13 76.25 154.13 107.56 154.10 138.86 C 147.76 138.88 141.42 138.87 135.08 138.87 C 135.05 118.56 135.10 98.26 135.06 77.95 C 127.17 77.84 119.28 78.10 111.40 77.82 C 111.50 73.10 111.42 68.39 111.47 63.67 C 118.82 63.57 126.79 62.52 132.53 57.48 C 136.28 54.34 138.12 49.61 139.07 44.94 Z" />
<path fill="#78b3e0" opacity="1.00" d=" M 44.42 59.43 C 52.29 59.43 60.17 59.39 68.04 59.44 C 72.56 59.45 77.73 60.75 80.15 64.94 C 82.56 69.42 82.51 75.05 80.68 79.72 C 78.82 84.33 73.60 86.29 68.96 86.35 C 60.79 86.50 52.63 86.34 44.46 86.42 C 44.35 77.42 44.43 68.42 44.42 59.43 Z" />
</svg>
