<?xml version="1.0" encoding="UTF-8" ?>
<!DOCTYPE svg PUBLIC "-//W3C//DTD SVG 1.1//EN" "http://www.w3.org/Graphics/SVG/1.1/DTD/svg11.dtd">
<svg width="185pt" height="185pt" viewBox="0 0 185 185" version="1.1" xmlns="http://www.w3.org/2000/svg">
<path fill="#0068a9" opacity="1.00" d=" M 0.00 0.00 L 185.00 0.00 L 185.00 185.00 L 0.00 185.00 L 0.00 0.00 Z" />
<path fill="#ffffff" opacity="1.00" d=" M 15.09 57.63 C 28.08 57.62 41.06 57.63 54.04 57.62 C 60.63 57.52 67.48 60.10 71.53 65.46 C 79.11 75.04 76.28 92.01 64.07 96.34 C 67.18 97.42 70.16 99.27 71.73 102.26 C 76.84 111.07 73.17 122.01 77.70 131.01 C 72.41 130.97 67.13 130.91 61.85 131.04 C 59.05 123.68 60.72 115.43 57.84 108.10 C 56.53 104.42 52.65 102.46 48.91 102.39 C 42.98 102.19 37.05 102.38 31.12 102.31 C 31.10 111.86 31.12 121.42 31.10 130.97 C 25.77 130.98 20.43 130.98 15.09 130.97 C 15.09 106.52 15.09 82.08 15.09 57.63 Z" />
<path fill="#ffffff" opacity="1.00" d=" M 105.20 59.06 C 109.00 59.08 112.80 59.07 116.60 59.09 C 116.59 83.05 116.59 107.00 116.60 130.96 C 111.77 130.99 106.93 130.98 102.10 130.97 C 102.08 115.42 102.13 99.88 102.07 84.33 C 96.09 84.33 90.12 84.34 84.14 84.32 C 84.14 80.69 84.14 77.05 84.14 73.41 C 89.85 73.32 96.07 72.48 100.43 68.44 C 103.16 66.03 104.39 62.50 105.20 59.06 Z" />
<path fill="#ffffff" opacity="1.00" d=" M 151.78 59.08 C 155.59 59.07 159.40 59.08 163.21 59.08 C 163.21 83.04 163.21 107.01 163.21 130.97 C 158.38 130.98 153.55 130.98 148.72 130.97 C 148.71 115.42 148.73 99.88 148.72 84.33 C 142.73 84.33 136.75 84.34 130.77 84.33 C 130.76 80.70 130.76 77.08 130.74 73.45 C 136.30 73.27 142.33 72.57 146.69 68.76 C 149.62 66.35 150.99 62.68 151.78 59.08 Z" />
<path fill="#0068a9" opacity="1.00" d=" M 31.11 70.16 C 37.41 70.21 43.72 70.07 50.01 70.22 C 53.47 70.35 57.34 71.80 58.73 75.24 C 60.11 78.78 60.05 82.99 58.34 86.42 C 56.58 89.73 52.53 90.77 49.04 90.79 C 43.06 90.84 37.09 90.78 31.11 90.80 C 31.11 83.92 31.11 77.04 31.11 70.16 Z" />
</svg>
