<?xml version="1.0" encoding="UTF-8" ?>
<!DOCTYPE svg PUBLIC "-//W3C//DTD SVG 1.1//EN" "http://www.w3.org/Graphics/SVG/1.1/DTD/svg11.dtd">
<svg width="186pt" height="186pt" viewBox="0 0 186 186" version="1.1" xmlns="http://www.w3.org/2000/svg">
<path fill="#ffdc01" opacity="1.00" d=" M 0.00 0.00 L 186.00 0.00 L 186.00 186.00 L 0.00 186.00 L 0.00 0.00 Z" />
<path fill="#231f20" opacity="1.00" d=" M 16.44 56.98 C 29.63 56.95 42.83 56.95 56.02 56.97 C 62.77 56.93 69.75 59.77 73.69 65.41 C 80.74 75.08 77.77 91.43 65.85 95.74 C 69.11 96.98 72.22 98.99 73.76 102.23 C 78.37 111.04 75.10 121.62 79.35 130.55 C 73.99 130.46 68.63 130.55 63.26 130.48 C 61.15 123.51 61.94 116.06 60.03 109.06 C 59.10 105.32 55.87 102.34 51.98 102.02 C 45.53 101.46 39.03 101.92 32.55 101.77 C 32.54 111.35 32.56 120.93 32.55 130.51 C 27.18 130.51 21.81 130.51 16.44 130.51 C 16.43 106.00 16.44 81.49 16.44 56.98 Z" />
<path fill="#231f20" opacity="1.00" d=" M 129.35 66.46 C 138.48 54.23 158.90 53.83 169.08 64.91 C 176.18 72.74 176.26 85.68 169.77 93.91 C 161.75 103.77 148.53 107.62 140.88 117.90 C 152.23 118.00 163.58 117.90 174.93 117.95 C 174.93 122.14 174.94 126.32 174.92 130.51 C 157.31 130.50 139.70 130.52 122.09 130.50 C 122.32 124.70 123.57 118.77 126.93 113.93 C 131.94 106.60 139.66 101.83 146.87 96.92 C 153.16 92.98 160.93 87.47 159.83 79.00 C 159.51 71.74 150.81 67.24 144.55 70.60 C 139.06 73.59 138.02 80.46 137.67 86.11 C 133.02 86.12 128.37 86.12 123.73 86.11 C 123.75 79.23 125.10 72.04 129.35 66.46 Z" />
<path fill="#231f20" opacity="1.00" d=" M 101.98 58.40 C 105.80 58.38 109.62 58.38 113.44 58.40 C 113.44 82.44 113.44 106.47 113.44 130.51 C 108.65 130.26 103.55 131.05 98.95 130.17 C 98.72 114.70 98.93 99.22 98.85 83.74 C 92.83 83.74 86.81 83.74 80.79 83.74 C 80.78 80.09 80.78 76.44 80.79 72.79 C 86.66 72.66 93.12 71.81 97.50 67.48 C 100.08 65.10 101.12 61.68 101.98 58.40 Z" />
<path fill="#ffdc01" opacity="1.00" d=" M 32.55 69.53 C 38.71 69.56 44.86 69.45 51.01 69.55 C 54.48 69.62 58.45 70.78 60.10 74.12 C 61.74 77.58 61.67 81.79 60.22 85.30 C 58.66 88.82 54.58 90.14 51.00 90.18 C 44.86 90.29 38.70 90.17 32.55 90.21 C 32.55 83.31 32.55 76.42 32.55 69.53 Z" />
</svg>
