<?xml version="1.0" encoding="UTF-8" ?>
<!DOCTYPE svg PUBLIC "-//W3C//DTD SVG 1.1//EN" "http://www.w3.org/Graphics/SVG/1.1/DTD/svg11.dtd">
<svg width="182pt" height="182pt" viewBox="0 0 182 182" version="1.1" xmlns="http://www.w3.org/2000/svg">
<path fill="#ed3896" opacity="1.00" d=" M 0.00 0.00 L 182.00 0.00 L 182.00 182.00 L 0.00 182.00 L 0.00 0.00 Z" />
<path fill="#ffffff" opacity="1.00" d=" M 16.11 56.35 C 29.10 56.37 42.09 56.31 55.08 56.37 C 60.96 56.42 66.97 58.67 70.86 63.19 C 76.38 69.43 77.01 79.08 73.33 86.40 C 71.45 90.08 67.97 92.56 64.30 94.26 C 67.36 95.38 70.30 97.21 71.83 100.20 C 76.67 108.82 73.29 119.38 77.54 128.20 C 72.32 128.15 67.11 128.18 61.90 128.17 C 59.45 120.94 60.84 112.98 58.13 105.82 C 56.83 102.09 52.84 100.23 49.10 100.17 C 43.35 100.00 37.59 100.15 31.84 100.11 C 31.82 109.46 31.84 118.81 31.83 128.16 C 26.59 128.18 21.34 128.18 16.10 128.16 C 16.10 104.22 16.08 80.28 16.11 56.35 Z" />
<path fill="#ffffff" opacity="1.00" d=" M 128.43 62.41 C 136.39 55.09 149.04 54.68 158.29 59.72 C 163.65 62.55 167.86 67.86 168.43 74.01 C 169.33 80.84 165.61 88.34 158.73 90.40 C 162.24 91.41 165.66 93.18 167.84 96.20 C 172.29 102.05 171.90 110.36 168.75 116.72 C 165.04 124.13 156.97 128.45 148.95 129.32 C 140.51 130.31 131.08 128.28 125.14 121.84 C 120.62 117.07 119.05 110.35 118.95 103.95 C 123.45 103.94 127.95 103.93 132.46 103.96 C 132.91 107.49 133.57 111.24 136.00 114.01 C 140.89 119.79 151.63 118.90 155.07 111.99 C 157.10 107.86 156.81 102.03 153.14 98.90 C 149.43 96.07 144.48 96.45 140.08 96.24 C 140.08 92.94 140.07 89.64 140.06 86.34 C 144.08 86.25 148.45 86.32 151.89 83.90 C 155.88 81.07 155.92 74.76 152.72 71.32 C 148.63 66.91 140.54 67.05 136.83 71.89 C 134.80 74.36 134.44 77.65 134.11 80.71 C 129.59 80.65 125.06 80.86 120.55 80.56 C 121.22 73.91 123.30 67.00 128.43 62.41 Z" />
<path fill="#ffffff" opacity="1.00" d=" M 94.98 66.89 C 97.66 64.56 98.77 61.06 99.69 57.75 C 103.40 57.77 107.11 57.78 110.82 57.79 C 110.82 81.24 110.82 104.70 110.81 128.16 C 106.07 128.18 101.33 128.17 96.58 128.16 C 96.56 112.94 96.59 97.72 96.57 82.50 C 90.69 82.49 84.82 82.51 78.94 82.49 C 78.92 78.94 78.92 75.39 78.94 71.84 C 84.56 71.69 90.70 70.91 94.98 66.89 Z" />
<path fill="#ed3896" opacity="1.00" d=" M 31.84 68.63 C 37.87 68.66 43.91 68.55 49.95 68.66 C 53.34 68.72 57.22 69.91 58.78 73.20 C 60.39 76.75 60.30 81.11 58.57 84.60 C 56.93 87.61 53.30 88.69 50.08 88.80 C 44.00 88.92 37.92 88.80 31.84 88.83 C 31.83 82.10 31.83 75.36 31.84 68.63 Z" />
</svg>
