<?xml version="1.0" encoding="UTF-8" ?>
<!DOCTYPE svg PUBLIC "-//W3C//DTD SVG 1.1//EN" "http://www.w3.org/Graphics/SVG/1.1/DTD/svg11.dtd">
<svg width="180pt" height="180pt" viewBox="0 0 180 180" version="1.1" xmlns="http://www.w3.org/2000/svg">
<path fill="#93806b" opacity="1.00" d=" M 0.00 0.00 L 180.00 0.00 L 180.00 180.00 L 0.00 180.00 L 0.00 0.00 Z" />
<path fill="#ffffff" opacity="1.00" d=" M 15.96 55.14 C 28.65 55.14 41.34 55.13 54.02 55.14 C 60.47 55.09 67.17 57.69 71.05 63.01 C 78.15 72.33 75.34 88.43 63.68 92.64 C 66.76 93.82 69.72 95.70 71.23 98.75 C 75.85 107.26 72.62 117.59 76.75 126.28 C 71.55 126.17 66.36 126.38 61.16 126.14 C 59.27 119.50 59.84 112.48 58.18 105.81 C 57.30 101.94 53.98 98.89 49.96 98.65 C 43.83 98.22 37.67 98.58 31.52 98.47 C 31.50 107.73 31.55 116.99 31.50 126.25 C 26.32 126.25 21.14 126.26 15.96 126.24 C 15.94 102.54 15.94 78.84 15.96 55.14 Z" />
<path fill="#ffffff" opacity="1.00" d=" M 98.65 56.55 C 102.33 56.54 106.02 56.55 109.70 56.54 C 109.75 79.77 109.71 103.00 109.72 126.23 C 105.02 126.26 100.33 126.26 95.63 126.24 C 95.61 111.17 95.62 96.11 95.63 81.04 C 89.81 81.00 83.98 81.05 78.16 81.01 C 78.15 77.50 78.15 73.98 78.15 70.46 C 83.63 70.33 89.57 69.60 93.82 65.79 C 96.59 63.46 97.80 59.94 98.65 56.55 Z" />
<path fill="#ffffff" opacity="1.00" d=" M 126.88 56.56 C 139.80 56.53 152.73 56.56 165.66 56.54 C 165.69 60.43 165.69 64.31 165.68 68.19 C 156.12 68.20 146.56 68.18 137.00 68.20 C 136.02 73.53 135.17 78.89 134.14 84.22 C 142.24 76.33 156.86 77.26 163.98 85.99 C 169.66 93.05 170.93 103.25 167.73 111.65 C 164.42 120.38 155.88 126.71 146.60 127.51 C 138.28 128.16 129.16 126.03 123.30 119.75 C 119.64 115.97 118.09 110.70 117.77 105.56 C 122.43 105.53 127.09 105.55 131.75 105.54 C 132.43 107.89 133.06 110.40 134.79 112.24 C 138.28 116.33 144.80 117.17 149.31 114.31 C 156.85 109.58 157.54 97.02 150.36 91.67 C 144.77 87.68 136.42 89.36 132.62 95.04 C 128.43 95.11 124.24 95.08 120.04 95.07 C 122.31 82.23 124.59 69.39 126.88 56.56 Z" />
<path fill="#93806b" opacity="1.00" d=" M 31.51 67.31 C 37.37 67.30 43.22 67.25 49.07 67.31 C 52.56 67.32 56.61 68.46 58.23 71.87 C 59.75 75.30 59.71 79.48 58.11 82.88 C 56.46 86.22 52.46 87.27 49.02 87.29 C 43.19 87.35 37.36 87.28 31.53 87.30 C 31.51 80.64 31.53 73.97 31.51 67.31 Z" />
</svg>
