<?xml version="1.0" encoding="UTF-8" ?>
<!DOCTYPE svg PUBLIC "-//W3C//DTD SVG 1.1//EN" "http://www.w3.org/Graphics/SVG/1.1/DTD/svg11.dtd">
<svg width="180pt" height="180pt" viewBox="0 0 180 180" version="1.1" xmlns="http://www.w3.org/2000/svg">
<path fill="#b30437" opacity="1.00" d=" M 0.00 0.00 L 180.00 0.00 L 180.00 180.00 L 0.00 180.00 L 0.00 0.00 Z" />
<path fill="#ffffff" opacity="1.00" d=" M 15.98 55.90 C 28.67 55.90 41.36 55.89 54.04 55.90 C 59.84 55.86 65.85 57.84 69.86 62.17 C 75.75 68.34 76.52 78.27 72.71 85.71 C 70.84 89.32 67.40 91.73 63.80 93.42 C 66.96 94.53 69.93 96.49 71.44 99.59 C 75.98 108.09 72.78 118.37 76.93 127.01 C 71.72 126.88 66.50 127.07 61.29 126.87 C 59.29 119.99 60.09 112.65 58.05 105.80 C 57.04 102.04 53.49 99.54 49.68 99.33 C 43.66 98.99 37.62 99.29 31.59 99.19 C 31.59 108.45 31.59 117.70 31.59 126.96 C 26.39 126.97 21.19 126.96 15.99 126.96 C 15.98 103.27 15.98 79.59 15.98 55.90 Z" />
<path fill="#ffffff" opacity="1.00" d=" M 136.58 57.53 C 145.18 54.35 155.93 55.69 162.49 62.45 C 165.88 65.87 167.53 70.55 168.39 75.19 C 163.95 75.22 159.50 75.23 155.05 75.19 C 153.98 72.19 152.49 68.98 149.43 67.56 C 145.44 65.34 140.23 67.02 137.53 70.49 C 133.56 75.44 132.77 82.01 132.06 88.11 C 134.42 85.46 136.98 82.75 140.42 81.54 C 148.88 78.26 159.15 81.20 164.82 88.22 C 172.42 98.49 170.52 114.48 160.81 122.76 C 153.12 129.32 141.42 129.98 132.58 125.46 C 125.43 121.69 121.50 113.92 119.83 106.30 C 117.60 95.54 117.76 84.03 121.73 73.68 C 124.40 66.72 129.40 60.19 136.58 57.53 Z" />
<path fill="#ffffff" opacity="1.00" d=" M 98.84 57.32 C 102.54 57.30 106.24 57.31 109.95 57.31 C 109.96 80.52 109.95 103.74 109.95 126.96 C 105.24 126.96 100.53 126.96 95.82 126.96 C 95.82 111.90 95.83 96.84 95.82 81.77 C 89.98 81.77 84.15 81.78 78.32 81.77 C 78.32 78.25 78.32 74.74 78.30 71.22 C 83.90 71.07 90.04 70.31 94.30 66.27 C 96.90 63.97 98.02 60.58 98.84 57.32 Z" />
<path fill="#b30437" opacity="1.00" d=" M 31.59 68.05 C 37.74 68.10 43.90 67.93 50.06 68.11 C 53.33 68.24 56.97 69.55 58.41 72.73 C 59.89 76.23 59.84 80.48 58.09 83.88 C 56.33 87.04 52.46 88.00 49.09 88.02 C 43.26 88.09 37.43 88.01 31.59 88.03 C 31.59 81.37 31.59 74.71 31.59 68.05 Z" />
<path fill="#b30437" opacity="1.00" d=" M 140.43 91.62 C 144.51 89.96 149.75 90.87 152.46 94.53 C 156.82 100.42 156.45 109.92 150.60 114.71 C 146.13 118.32 138.97 116.76 135.99 111.98 C 131.65 105.69 132.88 94.87 140.43 91.62 Z" />
</svg>
