<?xml version="1.0" encoding="UTF-8" ?>
<!DOCTYPE svg PUBLIC "-//W3C//DTD SVG 1.1//EN" "http://www.w3.org/Graphics/SVG/1.1/DTD/svg11.dtd">
<svg width="179pt" height="180pt" viewBox="0 0 179 180" version="1.1" xmlns="http://www.w3.org/2000/svg">
<path fill="#ef7100" opacity="1.00" d=" M 0.00 0.00 L 179.00 0.00 L 179.00 180.00 L 0.00 180.00 L 0.00 0.00 Z" />
<path fill="#ffffff" opacity="1.00" d=" M 16.10 55.13 C 28.74 55.13 41.39 55.11 54.04 55.13 C 60.70 55.05 67.63 57.86 71.45 63.50 C 78.04 72.84 75.14 88.49 63.68 92.51 C 66.77 93.71 69.75 95.57 71.26 98.64 C 75.86 107.13 72.57 117.46 76.81 126.08 C 71.61 126.00 66.41 126.16 61.22 125.96 C 59.05 118.86 60.17 111.16 57.67 104.16 C 56.46 100.51 52.67 98.53 49.00 98.43 C 43.22 98.22 37.42 98.40 31.63 98.36 C 31.64 107.59 31.64 116.82 31.63 126.05 C 26.45 126.06 21.28 126.06 16.10 126.05 C 16.09 102.41 16.09 78.77 16.10 55.13 Z" />
<path fill="#ffffff" opacity="1.00" d=" M 94.28 65.26 C 96.74 62.97 97.76 59.68 98.59 56.53 C 102.26 56.54 105.94 56.54 109.62 56.53 C 109.65 79.71 109.63 102.88 109.63 126.05 C 104.95 126.06 100.26 126.06 95.57 126.05 C 95.57 111.04 95.55 96.03 95.59 81.02 C 89.77 80.90 83.96 80.99 78.14 80.95 C 78.14 77.44 78.14 73.93 78.14 70.42 C 83.81 70.28 90.07 69.47 94.28 65.26 Z" />
<path fill="#ffffff" opacity="1.00" d=" M 119.83 56.54 C 135.60 56.53 151.37 56.53 167.13 56.54 C 167.14 60.58 167.17 64.61 167.10 68.64 C 151.79 83.41 145.45 105.31 144.43 126.05 C 139.41 126.07 134.40 126.06 129.39 126.05 C 131.10 105.42 139.57 85.60 152.65 69.63 C 141.72 69.65 130.78 69.63 119.84 69.64 C 119.81 65.27 119.82 60.91 119.83 56.54 Z" />
<path fill="#ef7100" opacity="1.00" d=" M 31.63 67.27 C 37.77 67.29 43.92 67.15 50.07 67.32 C 53.46 67.44 57.23 68.95 58.52 72.35 C 59.74 75.70 59.70 79.65 58.11 82.88 C 56.40 86.19 52.40 87.19 48.96 87.20 C 43.19 87.25 37.41 87.19 31.64 87.20 C 31.63 80.56 31.65 73.91 31.63 67.27 Z" />
</svg>
