<?xml version="1.0" encoding="UTF-8" ?>
<!DOCTYPE svg PUBLIC "-//W3C//DTD SVG 1.1//EN" "http://www.w3.org/Graphics/SVG/1.1/DTD/svg11.dtd">
<svg width="184pt" height="184pt" viewBox="0 0 184 184" version="1.1" xmlns="http://www.w3.org/2000/svg">
<path fill="#00a54f" opacity="1.00" d=" M 0.00 0.00 L 184.00 0.00 L 184.00 184.00 L 0.00 184.00 L 0.00 0.00 Z" />
<path fill="#ffffff" opacity="1.00" d=" M 14.94 42.69 C 32.63 42.70 50.31 42.65 68.00 42.71 C 77.29 42.86 86.78 47.38 91.53 55.59 C 97.33 65.60 96.60 79.85 88.27 88.25 C 85.88 90.65 82.87 92.30 79.79 93.63 C 84.09 95.04 88.11 97.70 90.25 101.80 C 96.72 113.35 91.96 127.61 97.92 139.32 C 90.88 139.27 83.84 139.29 76.80 139.31 C 73.78 130.54 74.85 121.06 72.67 112.13 C 71.83 108.87 70.18 105.58 67.22 103.77 C 64.18 101.86 60.48 101.57 56.98 101.52 C 50.04 101.53 43.10 101.53 36.17 101.54 C 36.16 114.12 36.18 126.70 36.16 139.29 C 29.09 139.30 22.01 139.30 14.94 139.29 C 14.93 107.09 14.93 74.89 14.94 42.69 Z" />
<path fill="#ffffff" opacity="1.00" d=" M 117.84 48.78 C 131.17 39.56 151.21 40.73 162.86 52.22 C 173.63 62.96 173.39 82.09 163.12 93.07 C 152.38 104.70 136.10 109.81 126.61 122.77 C 141.54 122.83 156.47 122.77 171.41 122.80 C 171.42 128.30 171.42 133.79 171.41 139.29 C 148.23 139.30 125.05 139.30 101.87 139.29 C 101.92 129.66 105.18 119.95 111.84 112.88 C 120.31 103.70 131.36 97.58 141.44 90.40 C 144.78 87.78 148.08 84.84 149.95 80.94 C 152.45 75.96 152.24 69.64 149.15 64.97 C 144.67 58.22 133.72 57.09 128.14 63.05 C 123.65 67.83 122.65 74.69 122.40 80.98 C 116.28 80.98 110.16 80.99 104.03 80.98 C 103.72 69.00 107.70 55.96 117.84 48.78 Z" />
<path fill="#00a54f" opacity="1.00" d=" M 36.17 59.18 C 44.14 59.20 52.11 59.15 60.08 59.20 C 64.61 59.24 69.78 60.56 72.20 64.76 C 74.64 69.31 74.57 75.02 72.68 79.75 C 70.78 84.32 65.59 86.24 60.96 86.32 C 52.70 86.47 44.43 86.33 36.17 86.37 C 36.17 77.31 36.17 68.25 36.17 59.18 Z" />
</svg>
