<?xml version="1.0" encoding="UTF-8" ?>
<!DOCTYPE svg PUBLIC "-//W3C//DTD SVG 1.1//EN" "http://www.w3.org/Graphics/SVG/1.1/DTD/svg11.dtd">
<svg width="183pt" height="223pt" viewBox="0 0 183 223" version="1.1" xmlns="http://www.w3.org/2000/svg">
<path fill="#99ca3b" opacity="1.00" d=" M 0.00 0.00 L 183.00 0.00 L 183.00 223.00 L 0.00 223.00 L 0.00 0.00 Z" />
<path fill="#ffffff" opacity="1.00" d=" M 15.86 42.25 C 33.23 42.31 50.61 42.25 67.99 42.28 C 75.53 42.34 83.26 44.99 88.54 50.51 C 96.87 59.02 97.96 73.13 92.25 83.34 C 89.75 87.91 85.21 90.68 80.81 93.14 C 85.95 94.82 90.24 98.72 92.10 103.83 C 96.62 114.92 92.90 127.74 98.49 138.50 C 91.46 138.53 84.42 138.52 77.39 138.51 C 74.55 130.15 75.38 121.15 73.59 112.59 C 72.81 109.19 71.41 105.66 68.49 103.54 C 65.18 101.14 60.92 100.91 56.99 100.90 C 50.31 100.93 43.63 100.90 36.96 100.92 C 36.93 113.45 36.97 125.99 36.94 138.52 C 29.87 138.46 22.81 138.65 15.75 138.42 C 15.88 106.36 15.67 74.30 15.86 42.25 Z" />
<path fill="#ffffff" opacity="1.00" d=" M 119.86 48.78 C 132.89 39.25 152.84 40.14 164.70 51.21 C 175.79 61.61 175.98 80.76 165.98 91.96 C 155.35 103.94 138.73 108.93 129.19 122.06 C 144.06 122.13 158.92 122.06 173.79 122.10 C 173.80 127.57 173.80 133.04 173.79 138.52 C 150.70 138.53 127.62 138.51 104.54 138.53 C 104.57 129.01 107.77 119.38 114.33 112.36 C 122.61 103.34 133.39 97.24 143.32 90.27 C 147.30 87.28 151.25 83.76 153.03 78.97 C 154.94 74.06 154.40 68.12 151.19 63.87 C 146.46 57.63 135.95 56.83 130.60 62.67 C 126.21 67.43 125.26 74.20 124.96 80.41 C 118.88 80.43 112.79 80.43 106.70 80.41 C 106.37 68.72 110.17 56.04 119.86 48.78 Z" />
<path fill="#99ca3b" opacity="1.00" d=" M 36.96 58.74 C 44.94 58.73 52.91 58.69 60.89 58.74 C 65.60 58.75 71.05 60.34 73.21 64.94 C 75.22 69.42 75.15 74.81 73.27 79.33 C 71.38 83.70 66.45 85.59 61.97 85.73 C 53.63 85.91 45.28 85.77 36.93 85.80 C 36.97 76.78 36.92 67.76 36.96 58.74 Z" />
<path fill="#ffffff" opacity="1.00" d=" M 14.29 156.38 C 18.01 156.37 21.72 156.36 25.44 156.40 C 32.59 167.78 39.50 179.33 46.84 190.60 C 46.92 179.18 46.72 167.77 46.93 156.36 C 50.40 156.38 53.87 156.34 57.34 156.44 C 57.28 173.41 57.34 190.38 57.30 207.35 C 53.58 207.37 49.86 207.37 46.14 207.36 C 39.00 195.91 31.87 184.45 24.78 172.97 C 24.75 184.44 24.79 195.90 24.76 207.36 C 21.29 207.36 17.82 207.36 14.36 207.40 C 14.19 190.39 14.32 173.39 14.29 156.38 Z" />
<path fill="#ffffff" opacity="1.00" d=" M 161.95 156.38 C 165.30 156.37 168.65 156.38 171.99 156.36 C 172.16 173.36 172.04 190.36 172.06 207.36 C 168.86 207.38 165.66 207.38 162.46 207.37 C 162.45 205.80 162.46 204.24 162.48 202.67 C 156.96 210.94 143.34 209.83 138.24 201.70 C 133.05 193.62 133.11 181.90 139.40 174.42 C 145.06 167.76 156.67 167.74 162.01 174.82 C 161.87 168.67 161.95 162.53 161.95 156.38 Z" />
<path fill="#ffffff" opacity="1.00" d=" M 77.34 170.44 C 82.82 168.79 89.01 169.15 94.07 171.89 C 106.29 178.65 106.22 199.51 93.82 206.05 C 86.91 209.56 77.84 209.18 71.63 204.36 C 60.80 195.59 63.25 174.48 77.34 170.44 Z" />
<path fill="#ffffff" opacity="1.00" d=" M 109.65 170.47 C 112.87 170.43 116.09 170.43 119.31 170.47 C 119.31 172.75 119.28 175.04 119.18 177.33 C 121.86 172.24 127.50 168.56 133.40 169.63 C 133.42 172.78 133.43 175.93 133.41 179.09 C 128.59 178.17 122.38 179.41 120.77 184.71 C 118.78 192.07 120.23 199.84 119.77 207.37 C 116.40 207.37 113.03 207.37 109.66 207.35 C 109.63 195.06 109.65 182.77 109.65 170.47 Z" />
<path fill="#99ca3b" opacity="1.00" d=" M 81.27 177.48 C 85.05 176.28 89.78 177.73 91.46 181.53 C 93.53 186.18 93.55 191.81 91.39 196.44 C 88.85 201.91 79.96 202.23 76.98 197.01 C 74.84 193.12 74.64 188.36 75.67 184.11 C 76.28 181.17 78.25 178.29 81.27 177.48 Z" />
<path fill="#99ca3b" opacity="1.00" d=" M 150.45 177.62 C 154.17 176.19 159.01 177.53 160.72 181.33 C 162.88 186.08 162.85 191.90 160.65 196.63 C 158.41 201.42 151.14 202.10 147.76 198.21 C 144.69 194.60 144.16 189.38 145.09 184.87 C 145.63 181.83 147.37 178.67 150.45 177.62 Z" />
</svg>
