<?xml version="1.0" encoding="UTF-8" ?>
<!DOCTYPE svg PUBLIC "-//W3C//DTD SVG 1.1//EN" "http://www.w3.org/Graphics/SVG/1.1/DTD/svg11.dtd">
<svg width="184pt" height="225pt" viewBox="0 0 184 225" version="1.1" xmlns="http://www.w3.org/2000/svg">
<path fill="#00652e" opacity="1.00" d=" M 0.00 0.00 L 184.00 0.00 L 184.00 225.00 L 0.00 225.00 L 0.00 0.00 Z" />
<path fill="#ffffff" opacity="1.00" d=" M 15.38 43.03 C 32.92 43.01 50.45 43.01 67.98 43.03 C 77.21 43.01 86.76 47.13 91.83 55.08 C 98.01 64.70 97.75 78.52 90.46 87.47 C 87.86 90.58 84.30 92.65 80.67 94.32 C 85.37 95.72 89.54 98.90 91.63 103.39 C 97.39 114.91 93.00 128.74 98.86 140.22 C 91.77 140.17 84.68 140.19 77.60 140.21 C 74.64 131.60 75.58 122.32 73.61 113.52 C 72.83 110.36 71.50 107.11 68.83 105.08 C 65.80 102.70 61.78 102.27 58.05 102.22 C 50.95 102.20 43.84 102.23 36.73 102.22 C 36.72 114.87 36.73 127.53 36.73 140.19 C 29.61 140.19 22.50 140.20 15.38 140.18 C 15.39 107.80 15.39 75.41 15.38 43.03 Z" />
<path fill="#ffffff" opacity="1.00" d=" M 120.50 49.55 C 133.53 40.09 153.32 40.89 165.35 51.68 C 176.88 62.06 177.26 81.65 167.11 93.10 C 156.36 105.24 139.55 110.30 129.86 123.57 C 144.88 123.63 159.90 123.58 174.92 123.60 C 174.92 129.13 174.93 134.67 174.92 140.20 C 151.60 140.20 128.29 140.21 104.97 140.20 C 105.06 130.86 108.03 121.41 114.34 114.39 C 122.79 104.85 134.09 98.59 144.38 91.31 C 147.96 88.58 151.48 85.47 153.43 81.32 C 155.93 76.14 155.61 69.52 152.11 64.86 C 147.26 58.41 136.30 57.68 131.00 63.95 C 126.81 68.77 125.89 75.41 125.61 81.55 C 119.46 81.53 113.31 81.55 107.16 81.54 C 106.85 69.71 110.67 56.88 120.50 49.55 Z" />
<path fill="#00652e" opacity="1.00" d=" M 36.73 59.63 C 44.47 59.63 52.22 59.61 59.96 59.62 C 64.05 59.66 68.59 60.30 71.57 63.39 C 74.51 66.45 75.05 70.99 74.74 75.04 C 74.49 78.52 73.21 82.16 70.30 84.29 C 67.07 86.71 62.86 86.99 58.97 87.00 C 51.56 86.98 44.14 86.99 36.73 86.99 C 36.73 77.87 36.73 68.75 36.73 59.63 Z" />
<path fill="#ffffff" opacity="1.00" d=" M 34.73 161.71 C 42.15 155.82 53.05 155.75 61.36 159.74 C 66.61 162.23 69.49 167.90 69.65 173.56 C 66.01 173.60 62.38 173.60 58.75 173.59 C 58.24 170.85 57.12 167.86 54.27 166.82 C 50.74 165.55 46.49 165.23 43.13 167.16 C 40.28 168.69 39.50 173.53 42.52 175.28 C 50.23 179.20 59.82 178.63 66.72 184.23 C 73.89 190.19 72.11 202.72 64.27 207.30 C 56.15 212.05 45.50 212.12 37.08 208.07 C 31.21 205.31 27.87 198.98 27.83 192.63 C 31.45 192.62 35.07 192.63 38.69 192.61 C 39.12 195.50 40.00 198.69 42.75 200.23 C 47.19 202.76 53.03 202.83 57.56 200.48 C 61.05 198.70 61.21 193.18 57.71 191.31 C 50.19 187.21 40.67 187.81 33.85 182.25 C 27.70 177.09 28.58 166.52 34.73 161.71 Z" />
<path fill="#ffffff" opacity="1.00" d=" M 145.65 158.23 C 149.05 158.23 152.46 158.23 155.87 158.23 C 155.87 175.40 155.88 192.56 155.87 209.73 C 152.62 209.73 149.38 209.73 146.14 209.73 C 146.15 208.13 146.17 206.54 146.19 204.96 C 140.69 213.28 127.02 212.26 121.80 204.15 C 116.38 195.86 116.47 183.64 123.21 176.10 C 129.04 169.73 140.48 169.86 145.73 176.93 C 145.55 170.69 145.68 164.46 145.65 158.23 Z" />
<path fill="#ffffff" opacity="1.00" d=" M 76.86 172.44 C 80.26 172.44 83.67 172.44 87.07 172.44 C 87.10 179.30 87.07 186.16 87.07 193.03 C 87.11 195.93 87.29 199.25 89.52 201.40 C 92.12 203.20 95.80 203.04 98.42 201.37 C 101.01 199.48 101.39 195.98 101.54 193.02 C 101.62 186.16 101.54 179.30 101.57 172.45 C 104.97 172.44 108.38 172.44 111.79 172.44 C 111.81 184.86 111.80 197.29 111.80 209.71 C 108.55 209.71 105.31 209.71 102.06 209.72 C 102.07 207.95 102.08 206.19 102.10 204.43 C 97.77 211.07 88.07 212.66 81.57 208.40 C 77.97 205.87 77.08 201.14 76.90 197.03 C 76.78 188.83 76.88 180.64 76.86 172.44 Z" />
<path fill="#00652e" opacity="1.00" d=" M 134.36 179.58 C 138.12 178.29 142.85 179.78 144.49 183.59 C 146.60 188.45 146.56 194.35 144.20 199.12 C 141.74 203.94 134.13 204.32 130.96 200.05 C 128.08 196.25 127.68 191.03 128.73 186.50 C 129.34 183.49 131.27 180.47 134.36 179.58 Z" />
</svg>
