<?xml version="1.0" encoding="UTF-8" ?>
<!DOCTYPE svg PUBLIC "-//W3C//DTD SVG 1.1//EN" "http://www.w3.org/Graphics/SVG/1.1/DTD/svg11.dtd">
<svg width="185pt" height="185pt" viewBox="0 0 185 185" version="1.1" xmlns="http://www.w3.org/2000/svg">
<path fill="#ee3b32" opacity="1.00" d=" M 0.00 0.00 L 185.00 0.00 L 185.00 185.00 L 0.00 185.00 L 0.00 0.00 Z" />
<path fill="#ffffff" opacity="1.00" d=" M 15.12 42.90 C 32.42 42.89 49.71 42.91 67.01 42.89 C 73.98 42.87 81.16 44.81 86.57 49.34 C 97.75 58.42 99.12 76.99 89.79 87.82 C 87.26 90.70 83.88 92.61 80.45 94.21 C 84.99 95.61 89.09 98.60 91.20 102.94 C 97.23 114.50 92.70 128.51 98.61 140.11 C 91.47 140.02 84.34 140.24 77.21 139.98 C 74.60 131.59 75.20 122.69 73.52 114.13 C 72.76 110.60 71.33 106.92 68.28 104.75 C 65.03 102.42 60.86 102.12 56.99 102.11 C 50.14 102.12 43.30 102.11 36.46 102.12 C 36.46 114.78 36.46 127.43 36.45 140.09 C 29.34 140.10 22.23 140.10 15.12 140.09 C 15.11 107.70 15.12 75.30 15.12 42.90 Z" />
<path fill="#ffffff" opacity="1.00" d=" M 116.97 50.06 C 130.19 39.39 151.29 40.92 163.35 52.68 C 171.14 60.21 172.64 73.45 166.30 82.32 C 164.04 85.60 160.49 87.63 156.81 88.93 C 162.33 90.35 167.55 93.55 170.50 98.55 C 174.57 105.24 174.57 113.72 172.12 120.98 C 169.53 128.61 163.45 134.77 156.20 138.13 C 146.54 142.63 135.22 143.12 125.07 140.02 C 118.08 137.89 111.73 133.35 107.94 127.03 C 104.29 121.15 103.05 114.13 102.99 107.30 C 109.10 107.30 115.20 107.31 121.31 107.30 C 121.77 111.88 122.66 116.66 125.62 120.35 C 131.74 128.40 145.92 127.91 151.34 119.31 C 154.63 113.99 154.59 106.36 150.46 101.50 C 145.56 96.58 138.01 97.11 131.62 96.90 C 131.62 92.40 131.62 87.90 131.61 83.39 C 137.21 83.52 143.38 83.44 148.03 79.88 C 153.10 75.95 152.99 67.74 148.83 63.18 C 143.11 56.87 131.42 57.43 126.68 64.66 C 124.37 67.92 123.89 71.99 123.60 75.87 C 117.50 75.83 111.40 75.86 105.30 75.84 C 105.76 66.22 109.32 56.28 116.97 50.06 Z" />
<path fill="#ee3b32" opacity="1.00" d=" M 36.46 59.50 C 44.60 59.52 52.75 59.45 60.89 59.53 C 65.61 59.58 71.02 61.25 73.13 65.88 C 75.15 70.54 75.09 76.18 72.92 80.78 C 70.78 85.15 65.64 86.76 61.09 86.83 C 52.88 86.96 44.67 86.84 36.46 86.87 C 36.46 77.75 36.45 68.62 36.46 59.50 Z" />
</svg>
