<?xml version="1.0" encoding="UTF-8" ?>
<!DOCTYPE svg PUBLIC "-//W3C//DTD SVG 1.1//EN" "http://www.w3.org/Graphics/SVG/1.1/DTD/svg11.dtd">
<svg width="186pt" height="186pt" viewBox="0 0 186 186" version="1.1" xmlns="http://www.w3.org/2000/svg">
<path fill="#f9a03a" opacity="1.00" d=" M 0.00 0.00 L 186.00 0.00 L 186.00 186.00 L 0.00 186.00 L 0.00 0.00 Z" />
<path fill="#ffffff" opacity="1.00" d=" M 15.69 42.84 C 33.46 42.83 51.23 42.82 69.00 42.85 C 77.09 42.99 85.39 46.10 90.65 52.42 C 97.64 60.54 98.60 72.71 94.45 82.36 C 92.00 88.04 86.90 92.07 81.31 94.42 C 85.82 95.79 89.91 98.72 92.05 103.00 C 98.32 114.65 93.63 128.87 99.65 140.59 C 92.51 140.51 85.38 140.56 78.25 140.56 C 75.24 131.92 76.25 122.57 74.26 113.73 C 73.45 110.40 71.97 106.98 69.07 104.97 C 65.87 102.72 61.82 102.38 58.03 102.37 C 51.08 102.38 44.12 102.38 37.17 102.38 C 37.13 115.10 37.19 127.82 37.14 140.55 C 29.99 140.55 22.84 140.57 15.69 140.54 C 15.69 107.97 15.68 75.41 15.69 42.84 Z" />
<path fill="#ffffff" opacity="1.00" d=" M 105.32 100.52 C 119.01 81.84 132.91 63.30 146.78 44.75 C 152.55 44.79 158.31 44.75 164.08 44.78 C 164.10 63.97 164.07 83.17 164.09 102.37 C 168.32 102.38 172.56 102.37 176.80 102.37 C 176.82 107.71 176.80 113.04 176.80 118.37 C 172.57 118.39 168.33 118.38 164.10 118.38 C 164.06 125.77 164.11 133.15 164.07 140.54 C 157.92 140.55 151.78 140.56 145.64 140.53 C 145.63 133.15 145.64 125.77 145.63 118.39 C 132.14 118.36 118.64 118.40 105.15 118.37 C 105.28 112.42 104.89 106.45 105.32 100.52 Z" />
<path fill="#f9a03a" opacity="1.00" d=" M 37.16 59.53 C 45.44 59.56 53.72 59.46 61.99 59.57 C 66.66 59.64 71.95 61.40 74.02 65.95 C 76.02 70.59 75.96 76.17 73.88 80.77 C 71.79 85.19 66.64 86.91 62.07 86.99 C 53.77 87.12 45.47 87.00 37.16 87.03 C 37.15 77.86 37.16 68.70 37.16 59.53 Z" />
<path fill="#f9a03a" opacity="1.00" d=" M 120.50 102.36 C 128.85 91.14 137.12 79.86 145.59 68.72 C 145.68 79.94 145.63 91.16 145.62 102.38 C 137.24 102.36 128.87 102.39 120.50 102.36 Z" />
</svg>
