<?xml version="1.0" encoding="UTF-8" ?>
<!DOCTYPE svg PUBLIC "-//W3C//DTD SVG 1.1//EN" "http://www.w3.org/Graphics/SVG/1.1/DTD/svg11.dtd">
<svg width="161pt" height="161pt" viewBox="0 0 161 161" version="1.1" xmlns="http://www.w3.org/2000/svg">
<path fill="#1ba8b6" opacity="1.00" d=" M 0.00 0.00 L 161.00 0.00 L 161.00 161.00 L 0.00 161.00 L 0.00 0.00 Z" />
<path fill="#ffffff" opacity="1.00" d=" M 10.57 121.78 C 10.41 93.71 10.53 65.62 10.51 37.54 C 25.67 37.53 40.84 37.53 56.01 37.54 C 62.93 37.51 70.08 39.93 74.83 45.13 C 81.56 52.30 82.54 63.65 78.45 72.37 C 76.27 77.00 71.98 80.17 67.41 82.18 C 71.19 83.44 74.72 85.80 76.57 89.43 C 82.10 99.54 78.08 111.88 83.14 122.15 C 77.00 122.14 70.86 122.12 64.71 122.17 C 61.78 113.92 63.29 104.85 60.50 96.59 C 59.27 92.42 55.30 89.61 51.04 89.31 C 43.74 88.82 36.41 89.22 29.09 89.09 C 29.08 100.11 29.10 111.12 29.08 122.14 C 22.95 121.89 16.51 122.65 10.57 121.78 Z" />
<path fill="#ffffff" opacity="1.00" d=" M 98.64 39.19 C 114.09 39.16 129.53 39.19 144.98 39.18 C 145.00 43.79 144.99 48.40 144.99 53.02 C 133.53 53.11 122.08 52.88 110.63 53.13 C 109.68 59.52 108.47 65.86 107.33 72.21 C 116.85 62.68 134.31 63.80 142.84 74.07 C 148.10 80.35 150.06 88.93 149.31 96.97 C 148.40 106.30 142.79 114.97 134.66 119.63 C 124.78 125.39 112.09 124.87 101.96 120.04 C 93.37 116.04 87.76 106.89 87.90 97.44 C 93.45 97.50 99.00 97.47 104.55 97.46 C 105.39 102.10 107.88 106.73 112.39 108.67 C 118.38 111.58 126.25 109.39 129.76 103.70 C 134.61 96.50 133.46 84.96 125.65 80.28 C 118.97 76.45 109.81 78.52 105.56 85.00 C 100.54 85.07 95.51 85.02 90.49 85.03 C 93.19 69.75 95.94 54.47 98.64 39.19 Z" />
<path fill="#1ba8b6" opacity="1.00" d=" M 29.10 51.97 C 36.43 52.03 43.76 51.85 51.09 52.04 C 55.11 52.14 59.59 53.88 61.19 57.86 C 62.77 61.90 62.70 66.71 60.78 70.62 C 58.78 74.52 54.10 75.76 50.04 75.77 C 43.06 75.84 36.08 75.77 29.10 75.80 C 29.09 67.85 29.09 59.91 29.10 51.97 Z" />
</svg>
