<svg width="161pt" height="161pt" version="1.1" viewBox="0 0 161 161" xmlns="http://www.w3.org/2000/svg"><path d="m0 0h161v161h-161v-161z" fill="#138599"/><path d="m129.77 51.114c-0.86262 0.02486-1.7203 0.10139-2.5649 0.22705-5.4725 0.57446-10.688 3.718-13.326 8.6235-4.384 7.8535-4.5725 17.219-3.9829 25.979 0.52155 7.1354 2.4633 14.77 7.9131 19.789 7.8308 6.183 20.93 5.5946 27.234-2.5386 4.9736-6.3417 6.0321-14.74 6.1304-22.548-0.0907-7.6947-0.94507-15.919-5.5181-22.374-3.5781-5.0199-9.8479-7.3313-15.886-7.1572zm-119.16 0.03809c0 19.275-0.0076 38.549 0 57.823 4.2102 8e-3 8.4285 0 12.639 0 0.02265-7.5511-2.76e-4 -15.11 0.0073-22.668 4.3311 0.02266 8.6694-0.0675 13 0.03076 2.774 0.13606 6.1456 0.6571 7.5439 3.416 3.2124 5.9109 1.3528 13.039 3.6885 19.222 4.2026 0.0152 8.4055-0.0297 12.601 0.0308-3.4845-6.5458-1.0285-14.4-3.8555-21.127-1.2094-2.9479-3.6585-5.4194-6.75-6.334 9.8716-3.7113 11.747-17.831 4.9292-25.156-2.9176-3.5223-7.6121-4.9647-12.026-5.2368zm93.003 0.94482c-10.544 0-21.082-0.0078-31.626 0.0073-1.8519 10.393-3.7485 20.771-5.5928 31.172 3.3787 0.01512 6.7563-0.03018 10.143 0.04541 2.8118-4.316 8.7993-5.9796 13.334-3.4248 6.9691 3.6433 6.8783 15.034 0.28711 19.04-2.5624 1.5949-5.82 1.6637-8.6016 0.63574-3.1368-1.3379-5.1022-4.4976-5.6162-7.7856-3.8247-0.01512-7.6497-0.0076-11.467 0 0.16629 4.6637 1.8664 9.4554 5.4492 12.577 4.5352 4.18 10.968 5.6844 17 5.3745 8.7529-0.20408 16.939-6.7868 18.935-15.328 1.8746-8.1709-0.84619-18.496-8.8433-22.419-6.1603-2.8043-14.188-2.4719-19.176 2.5093 0.8239-4.248 1.5574-8.5106 2.3511-12.766 7.8005 0 15.609 0.0076 23.417 0 0.0223-3.2124 0.0153-6.4248 7e-3 -9.6372zm26.974 8.5356c1.9248 0.04547 3.8179 0.74317 5.1123 2.2266 2.8647 3.1973 3.4174 7.6803 3.75 11.785 0.29479 5.9184 0.55161 11.951-0.89209 17.748-0.74831 2.7665-1.9879 5.8274-4.7241 7.1426-3.2351 1.8216-7.7562 0.72542-9.6987-2.4492-2.1164-3.4014-2.608-7.4972-2.8726-11.413-0.17385-5.9638-0.55116-12.064 1.0664-17.884 0.80877-2.6304 2.267-5.3668 4.8823-6.561 1.0544-0.41384 2.2216-0.62201 3.3765-0.59473zm-98.575 0.31055c2.9186-0.02079 5.8326 0.03515 8.7275 0.41309 7.0447 1.4966 7.0374 13.778-0.0073 15.335-5.7446 1.0809-11.656 0.30352-17.468 0.53027-0.0075-5.412 2.76e-4 -10.824-0.0073-16.236 2.9139 0.07559 5.8368-0.02169 8.7554-0.04248z" fill="#fff" stroke-linecap="round" stroke-linejoin="round" stroke-miterlimit="0" stroke-width="15"/></svg>
