<?xml version="1.0" encoding="UTF-8" ?>
<!DOCTYPE svg PUBLIC "-//W3C//DTD SVG 1.1//EN" "http://www.w3.org/Graphics/SVG/1.1/DTD/svg11.dtd">
<svg width="161pt" height="161pt" viewBox="0 0 161 161" version="1.1" xmlns="http://www.w3.org/2000/svg">
<path fill="#878a8f" opacity="1.00" d=" M 0.00 0.00 L 161.00 0.00 L 161.00 161.00 L 0.00 161.00 L 0.00 0.00 Z" />
<path fill="#ffffff" opacity="1.00" d=" M 12.33 36.99 C 27.54 36.87 42.76 36.95 57.97 36.94 C 65.06 36.93 72.36 39.53 77.09 44.97 C 83.37 52.07 84.26 62.90 80.48 71.39 C 78.33 76.20 73.98 79.59 69.23 81.60 C 73.23 82.86 76.83 85.51 78.67 89.35 C 83.80 99.41 80.02 111.47 84.96 121.59 C 78.80 121.51 72.64 121.59 66.48 121.53 C 63.64 113.22 65.15 104.12 62.27 95.84 C 60.91 91.36 56.39 88.66 51.85 88.61 C 44.89 88.33 37.91 88.56 30.94 88.50 C 30.91 99.52 30.96 110.54 30.91 121.56 C 24.72 121.55 18.53 121.56 12.34 121.55 C 12.31 93.36 12.35 65.17 12.33 36.99 Z" />
<path fill="#ffffff" opacity="1.00" d=" M 104.19 45.23 C 114.82 34.16 135.03 33.95 145.40 45.46 C 149.01 49.46 150.84 54.68 151.73 59.91 C 146.44 59.92 141.14 59.91 135.85 59.92 C 134.71 56.53 133.07 53.04 129.87 51.15 C 125.11 48.14 118.52 49.89 115.12 54.14 C 110.34 60.03 109.24 67.90 108.57 75.21 C 111.83 71.29 115.87 67.69 121.03 66.64 C 130.57 64.12 141.38 67.77 147.55 75.44 C 156.00 86.98 154.55 104.42 144.72 114.70 C 132.87 127.24 109.23 125.97 99.74 111.20 C 93.07 100.90 91.85 88.09 92.34 76.11 C 93.14 65.03 96.28 53.42 104.19 45.23 Z" />
<path fill="#878a8f" opacity="1.00" d=" M 30.95 51.40 C 38.31 51.45 45.66 51.28 53.01 51.47 C 56.92 51.60 61.24 53.23 62.93 57.03 C 64.62 61.03 64.58 65.84 62.76 69.80 C 60.85 73.83 56.05 75.22 51.91 75.20 C 44.92 75.27 37.93 75.20 30.94 75.21 C 30.93 67.27 30.91 59.33 30.95 51.40 Z" />
<path fill="#878a8f" opacity="1.00" d=" M 118.36 79.52 C 123.29 77.45 129.69 78.58 132.90 83.07 C 137.90 90.02 137.50 101.05 130.79 106.78 C 125.54 111.28 116.83 109.51 113.20 103.79 C 107.99 96.31 109.40 83.45 118.36 79.52 Z" />
</svg>
