<svg width="161pt" height="161pt" version="1.1" viewBox="0 0 161 161" xmlns="http://www.w3.org/2000/svg"><path d="m0 0h161v161h-161z" fill="#474c55"/><path d="m129.3 50.891c-1.7798 0.06673-3.5474 0.33291-5.2368 0.78076-4.6562 1.164-8.639 4.4598-10.786 8.7305-4.0741 7.8913-4.1952 17.09-3.583 25.745 0.53667 6.954 2.441 14.301 7.6186 19.282 5.0416 4.3765 12.344 5.1323 18.64 3.5903 6.1301-1.5117 10.529-6.8028 12.562-12.562 2.6909-7.672 2.8351-16.009 1.9658-24.013-0.74831-5.8353-2.4499-11.921-6.6299-16.267-3.7642-3.8889-9.2123-5.4853-14.552-5.2852zm-87.142 0.01758c-10.59-0.0076-21.187-2.75e-4 -31.777 0.0073v57.816h12.661v-22.487c4.3387 0.0378 8.6777-0.0677 13.024 0.0381 2.8421 0.12094 6.2205 0.72506 7.6113 3.5596 3.0764 5.8428 1.3152 12.804 3.5903 18.896 4.1951-8e-3 8.398-0.0292 12.601 0.0161-3.4392-6.4929-1.0733-14.249-3.7793-20.953-1.1867-3.0084-3.6658-5.4881-6.7573-6.501 9.8792-3.4694 11.556-17.603 5.0859-24.913-2.9252-3.666-7.7316-5.2154-12.259-5.48zm44.566 0.01611c-2.6994 0.01795-5.4013 0.54251-7.9146 1.5176-4.7846 1.9048-8.4661 5.9639-10.613 10.575-4.2102 8.564-4.2636 18.527-2.7217 27.756 1.2925 7.2563 5.2917 14.792 12.495 17.574 6.251 2.26 13.764 1.9434 19.365-1.8662 9.025-5.926 11.391-19.419 5.707-28.421-4.2555-6.4098-13.091-9.1463-20.279-6.5083-2.8647 0.93728-5.0271 3.1135-6.9243 5.3584 0.29479-4.5579 1.0879-9.2889 3.605-13.197 2.1693-3.4241 7.1199-5.3136 10.778-3.1216 2.2827 1.2245 3.3719 3.6887 4.2261 5.9941 3.5601 0.01512 7.1271 0.0076 10.695 0-0.9524-6.0167-4.655-11.929-10.521-14.136-2.5019-1.0544-5.199-1.5429-7.8984-1.5249zm43.638 9.4277c2.7237 0.07677 5.3116 1.6952 6.5215 4.207 2.7211 5.1852 2.3801 11.255 2.5767 16.947-0.0832 5.1172-0.27161 10.559-2.8491 15.132-2.3281 4.3916-9.327 4.9595-12.29 0.96094-3.7793-5.5707-3.2429-12.691-3.4394-19.116 0.0227-4.1648 0.24092-8.443 1.73-12.374 1.028-2.5473 2.9705-5.1026 5.8579-5.5562 0.62785-0.15448 1.264-0.2184 1.8926-0.20068zm-97.014 0.33106c2.6738 0.0077 5.3379 0.13678 7.9702 0.63281 4.2404 1.4664 5.0648 6.7952 4.0444 10.627-0.77098 3.0915-3.8929 5.0502-6.9844 5.02-5.1097 0.08314-10.227-0.0083-15.344 0.02197 8e-3 -5.4196 8e-3 -10.832 0-16.244 3.4227 0.1233 6.8762-0.06839 10.314-0.05859zm52.456 18.538c2.7398-0.0402 5.4167 1.414 6.8906 3.7661 2.6909 4.3462 2.5701 10.416-0.66503 14.452-2.8799 3.4392-8.7384 3.7794-11.837 0.46875-5.3742-5.1474-4.1115-16.418 3.7192-18.413 0.62501-0.17574 1.2603-0.26463 1.8926-0.27393z" fill="#fff" stroke-linecap="round" stroke-linejoin="round" stroke-miterlimit="0" stroke-width="15"/></svg>
