<?xml version="1.0" encoding="UTF-8" ?>
<!DOCTYPE svg PUBLIC "-//W3C//DTD SVG 1.1//EN" "http://www.w3.org/Graphics/SVG/1.1/DTD/svg11.dtd">
<svg width="186pt" height="186pt" viewBox="0 0 186 186" version="1.1" xmlns="http://www.w3.org/2000/svg">
<path fill="#b77cb5" opacity="1.00" d=" M 0.00 0.00 L 186.00 0.00 L 186.00 186.00 L 0.00 186.00 L 0.00 0.00 Z" />
<path fill="#ffffff" opacity="1.00" d=" M 15.70 43.21 C 33.16 43.20 50.61 43.21 68.06 43.20 C 76.36 43.13 84.96 46.14 90.47 52.54 C 97.61 60.63 98.70 72.89 94.54 82.63 C 92.13 88.35 87.00 92.37 81.43 94.79 C 85.97 96.30 90.13 99.25 92.24 103.66 C 98.25 115.29 93.76 129.33 99.63 141.01 C 92.48 140.91 85.33 141.04 78.18 140.93 C 75.52 132.57 76.14 123.67 74.51 115.12 C 73.77 111.58 72.40 107.89 69.44 105.61 C 66.21 103.13 61.96 102.78 58.03 102.75 C 51.08 102.76 44.13 102.75 37.18 102.77 C 37.16 115.50 37.19 128.23 37.16 140.96 C 30.01 140.98 22.85 140.98 15.70 140.96 C 15.69 108.38 15.67 75.79 15.70 43.21 Z" />
<path fill="#ffffff" opacity="1.00" d=" M 106.31 45.15 C 128.10 45.12 149.90 45.13 171.69 45.14 C 171.70 50.66 171.69 56.18 171.70 61.70 C 160.05 72.39 152.56 86.79 147.49 101.59 C 143.22 114.27 140.68 127.56 140.32 140.95 C 133.40 140.97 126.48 140.96 119.56 140.95 C 121.84 112.50 133.61 85.17 151.69 63.20 C 136.56 63.18 121.44 63.23 106.31 63.18 C 106.30 57.17 106.31 51.16 106.31 45.15 Z" />
<path fill="#b77cb5" opacity="1.00" d=" M 37.18 59.92 C 44.79 59.91 52.39 59.92 59.99 59.90 C 64.09 59.92 68.61 60.38 71.79 63.26 C 74.73 65.93 75.55 70.13 75.49 73.94 C 75.40 77.72 74.44 81.88 71.38 84.39 C 68.22 87.00 63.94 87.41 59.99 87.44 C 52.39 87.42 44.78 87.44 37.18 87.42 C 37.17 78.25 37.16 69.09 37.18 59.92 Z" />
</svg>
