<?xml version="1.0" encoding="UTF-8" ?>
<!DOCTYPE svg PUBLIC "-//W3C//DTD SVG 1.1//EN" "http://www.w3.org/Graphics/SVG/1.1/DTD/svg11.dtd">
<svg width="186pt" height="186pt" viewBox="0 0 186 186" version="1.1" xmlns="http://www.w3.org/2000/svg">
<path fill="#82005e" opacity="1.00" d=" M 0.00 0.00 L 186.00 0.00 L 186.00 186.00 L 0.00 186.00 L 0.00 0.00 Z" />
<path fill="#ffffff" opacity="1.00" d=" M 15.34 40.25 C 33.24 40.26 51.14 40.21 69.04 40.27 C 78.65 40.40 88.45 45.22 93.16 53.83 C 98.81 64.14 97.84 78.71 88.98 86.96 C 86.66 89.10 83.84 90.57 81.00 91.90 C 85.74 93.27 89.94 96.48 92.07 100.99 C 97.94 112.57 93.40 126.56 99.38 138.10 C 92.24 138.07 85.11 138.08 77.98 138.09 C 75.03 129.62 75.91 120.47 74.08 111.77 C 73.33 108.40 71.97 104.93 69.16 102.75 C 66.02 100.29 61.87 99.89 58.03 99.86 C 50.97 99.86 43.90 99.86 36.84 99.87 C 36.83 112.60 36.85 125.34 36.83 138.08 C 29.67 138.08 22.50 138.09 15.34 138.07 C 15.34 105.46 15.34 72.86 15.34 40.25 Z" />
<path fill="#ffffff" opacity="1.00" d=" M 115.73 51.79 C 121.36 44.89 130.19 41.36 138.88 40.48 C 147.71 39.63 157.15 41.29 164.40 46.64 C 171.99 52.18 176.75 62.19 174.35 71.55 C 172.96 78.54 167.42 84.06 160.79 86.34 C 167.17 87.80 173.17 91.70 176.14 97.67 C 180.36 106.15 179.77 116.85 174.76 124.88 C 170.92 130.85 164.82 135.10 158.18 137.42 C 147.89 141.03 136.37 140.76 126.16 137.05 C 118.44 134.22 111.40 128.54 108.52 120.65 C 105.52 112.41 105.89 102.46 111.12 95.19 C 114.38 90.57 119.56 87.73 124.94 86.32 C 120.24 84.84 115.81 82.00 113.40 77.60 C 108.94 69.57 109.90 58.89 115.73 51.79 Z" />
<path fill="#82005e" opacity="1.00" d=" M 138.37 55.51 C 142.61 54.46 147.32 54.75 151.21 56.82 C 159.00 61.07 159.52 74.20 151.60 78.61 C 144.54 82.62 133.43 81.40 129.46 73.63 C 125.87 66.46 130.50 57.02 138.37 55.51 Z" />
<path fill="#82005e" opacity="1.00" d=" M 36.84 56.98 C 45.23 57.02 53.62 56.88 62.00 57.04 C 67.04 57.07 72.70 59.49 74.27 64.68 C 75.81 69.96 75.68 76.52 71.78 80.79 C 69.00 83.64 64.83 84.41 61.00 84.50 C 52.97 84.57 44.94 84.45 36.91 84.56 C 36.75 75.37 36.88 66.18 36.84 56.98 Z" />
<path fill="#82005e" opacity="1.00" d=" M 137.45 94.53 C 144.48 92.57 153.06 94.58 157.14 100.99 C 162.05 108.47 159.01 119.91 150.74 123.61 C 141.90 128.10 129.18 123.64 126.70 113.60 C 124.05 105.61 129.04 96.15 137.45 94.53 Z" />
</svg>
