<svg width="185pt" height="185pt" version="1.1" viewBox="0 0 185 185" xmlns="http://www.w3.org/2000/svg"><path d="m0 0h185v185h-185z" fill="#1a75cf" stroke-width=".99731"/><path transform="matrix(.18916 0 0 .18916 2.05e-6 0)" d="m548.44 283.7c-14.304 0.10078-28.602 1.9949-42.452 5.5136-32.29 8.18-61.482 27.361-82.302 53.301-25.24 31.1-39.064 70.17-44.264 109.56-5.46 42.84-2.403 87.281 12.367 128.06 12.22 33.88 33.448 65.139 63.058 86.089 29.63 21.29 66.826 30.739 103.06 29.009 19.46-1.21 38.576-7.6353 54.726-18.585 13.86-9.27 25.479-21.58 35.049-35.18 2.64 14.86 5.2984 29.729 7.9684 44.589 16.48 0 32.949 0.01 49.429 0 0.01-70.82 0.01-141.64 0-212.47h-148.55c-0.01 21.46-0.01 42.917 0 64.367 26.11 0.01 52.217-0.00225 78.337 0.00775-1.39 15.77-4.8138 31.623-12.344 45.673-7.04 13.33-18.241 24.521-31.951 30.921-15.96 7.52-34.149 9.3148-51.559 7.5348-18.77-1.92-36.84-10.508-49.84-24.238-13.93-14.28-22.473-32.945-27.723-51.985-7.34-27.64-8.318-56.695-5.018-85.005 2.64-20.85 8.0049-41.679 18.415-60.069 7.38-13.03 17.622-24.632 30.472-32.462 15.6-9.63 34.482-13.038 52.612-11.608 16.51 1.27 32.686 8.167 44.396 19.987 12.39 12.24 19.595 28.79 23.115 45.65 24.73 0.03 49.472 0.01549 74.202 0.01549-1.9-19.3-6.6741-38.435-15.054-55.965-8.04-16.9-19.342-32.271-33.252-44.791-21.38-19.41-48.737-31.865-77.237-36.125-8.49-1.2712-17.073-1.857-25.655-1.7966zm-506.26 9.2617c-0.01 131.03-0.01 262.06 0 393.09 25.91 0.01 51.808 0 77.718 0 0.01-51.2 0.00549-102.4 0.01549-153.6 26.04-0.01 52.065-0.00774 78.105-0.00774 12.26 0.09 25.19 1.8074 35.49 8.9674 9.26 6.34 14.855 16.65 18.105 27.15 5.31 17.31 6.2158 35.531 7.5658 53.471 1.84 21.48 2.4528 43.506 9.7728 64.026 25.88-0.01 51.773-0.01 77.663 0-6.07-10.37-8.7172-22.3-10.547-34.05-4.89-30.34-1.7783-61.519-8.7583-91.579-3.7-16.76-10.447-33.613-23.077-45.673-6.83-6.65-15.484-11.069-24.494-13.939 1.42-1.03 2.9347-1.9304 4.5147-2.7104 9.42-4.67 18.107-10.89 25.377-18.5 13.27-13.73 21.089-31.949 24.339-50.598 3.83-22.51 3.2547-46.17-4.3753-67.86-6.53-18.95-18.445-36.202-34.545-48.252-12.02-9.1-26.235-15.195-41.035-17.935-12.84-2.65-25.994-1.9157-39.014-2.0057-57.6 0-115.21-0.01-172.82 0zm790.22 7.8058c-1.04 7.54-2.6726 15.018-5.2426 22.178-5.57 16.04-16.496 30.243-31.006 39.153-19.37 12.11-42.824 15.517-65.304 15.147-0.01 19.61-0.01 39.218 0 58.838 29.05 0.01 58.102-0.00225 87.142 0.00775 0.02 83.32-0.00226 166.64 0.00774 249.96 23.45 0 46.903 0.01 70.353 0 0.01-128.43 0.01-256.86 0-385.29-18.65-0.01-37.3-0.02-55.95 0zm-712.49 59.388c29.05 0.01 58.092-0.02903 87.142 0.03097 13.9 0.21 28.918 3.5329 38.758 14.063 10.39 11.1 12.869 27.09 12.739 41.74-0.2 14.09-2.698 29.274-12.398 40.144-6.66 7.52-16.316 11.709-26.066 13.389-8.94 1.64-18.056 1.1768-27.096 1.2468-24.36-0.01-48.719-0.00549-73.079-0.01549-0.01-36.86 0-73.728 0-110.6z" fill="#fff"/></svg>
