<svg width="379pt" height="379pt" version="1.1" viewBox="0 0 379 379" xmlns="http://www.w3.org/2000/svg"><path d="m0 0h379v379h-379v-379z" fill="#596123"/><path d="m187.32 121.42c-9.9702 0.0193-19.94 4.9e-4 -29.911 0.01025-0.01 45.372-0.01874 90.744 0.01026 136.12 32.069 0.01 64.145-9.4e-4 96.214 0.00879 0.0193-8.4 0.0193-16.789 0-25.179h-66.294c-0.0289-36.981 0.00986-73.964-0.01904-110.95v-0.00146zm-167.54 0.01025c-0.0193 45.372-0.029 90.753 0 136.12 9.9702-0.0193 19.932-5.3e-4 29.902-0.01025 0.0385-17.725-0.009757-35.458 0.019043-53.193 10.259 0.0193 20.508-0.02092 30.768 0.01758 5.934 0.0963 12.562 1.3483 16.501 6.2226 4.3927 5.5005 5.2018 12.813 5.8857 19.585 1.1174 9.1418 0.8977 18.602 4.144 27.359 9.9606 0.0578 19.92-0.03983 29.89 0.04687-8.5349-15.952-2.0516-35.459-10.269-51.546-2.967-6.2904-8.8048-10.903-15.48-12.686 7.6776-3.2174 14.709-8.7092 18.215-16.425 6.2037-13.843 4.6631-31.627-5.8081-43.022-7.4175-8.2748-18.631-12.379-29.584-12.456-24.728-0.0481-49.456-0.00828-74.184-0.01758zm312.23 2.6982c-7.1577-0.01-14.314-0.00974-21.472 0.01026-1.0886 6.9457-4.1626 13.814-9.75 18.284-8.1788 6.6663-19.161 8.2741-29.411 8.2163-0.01 6.7819 0 13.565 0 20.347 11.175 0.01 22.36-0.01 33.545 0 0.0193 28.862-0.00118 57.713 0.00879 86.565 9.0265 0 18.054 0.01 27.081 0 0.01-44.478 0.01-88.945 0-133.42h-0.00146zm-265.54 20.563c5.592-4e-3 11.185-0.00223 16.777 0.02197 5.2982 0.1156 11.021 1.1365 14.971 4.9512 3.7087 3.5546 4.8241 8.9192 4.853 13.871 0 5.25-1.1363 11.01-5.1533 14.719-4.1519 3.8629-10.115 4.7023-15.567 4.7505-10.885 0-21.77-5.1e-4 -32.656-0.01025-0.01-12.764-0.0193-25.537 0-38.301 5.592 0.01 11.183 0.00273 16.775 0v-0.00147z" fill="#fff" stroke-width=".96331"/></svg>
