<svg width="379pt" height="379pt" version="1.1" viewBox="0 0 379 379" xmlns="http://www.w3.org/2000/svg"><path d="m0 0h379v379h-379v-379z" fill="#82bb27"/><path d="m187.32 121.42c-9.9702 0.0193-19.941 2.4e-4 -29.911 0.01-0.01 45.372-0.019 90.744 0.01 136.12 32.069 0.01 64.146-7.3e-4 96.214 9e-3 0.0193-8.4001 0.0193-16.789 0-25.18h-66.295c-0.0289-36.981 0.0106-73.964-0.0183-110.95zm-167.54 0.01c-0.0193 45.372-0.029 90.753 0 136.12 9.9702-0.0193 19.931 7.2e-4 29.901-9e-3 0.0385-17.725-9e-3 -35.46 0.0198-53.194 10.259 0.0193 20.508-0.0202 30.768 0.0183 5.934 0.0963 12.561 1.3486 16.501 6.2229 4.3927 5.5005 5.2017 12.813 5.8857 19.585 1.1174 9.1418 0.89663 18.602 4.143 27.358 9.9606 0.0578 19.921-0.0387 29.891 0.048-8.5349-15.952-2.0516-35.46-10.269-51.547-2.967-6.2904-8.8054-10.904-15.481-12.686 7.6776-3.2174 14.709-8.7091 18.216-16.425 6.2037-13.843 4.6631-31.626-5.8081-43.022-7.4175-8.2748-18.631-12.379-29.584-12.456-24.728-0.0481-49.456-9e-3 -74.184-0.0183zm291.99 7e-3c-12.204 0.15202-24.52 4.1784-33.192 12.968-10.712 10.616-14.71 26.28-14.248 40.999 8.6312 0.0193 17.262 0.01 25.894 0 0.2601-8.8624 1.7526-18.516 8.0334-25.269 8.0244-8.6794 24.094-6.6468 30.056 3.4487 4.8069 7.9184 3.8146 18.573-1.7822 25.846-6.878 9.1132-17.388 14.229-26.482 20.741-11.733 8.2074-24.054 16.665-31.5 29.237-5.1344 8.4097-7.1772 18.351-7.3024 28.119 32.666 0.0482 65.332 0.029 97.998 0.01 0-7.745-0.01-15.49 0-23.235-21.029-0.0482-42.058 0.0196-63.087-0.038 11.29-15.635 29.728-23.197 44.323-35.094 7.3789-5.9629 13.678-13.727 16.24-23.004 3.3138-11.82 2.1392-25.268-4.8062-35.595-7.0418-10.645-19.277-17.04-31.761-18.629-2.7581-0.36666-5.5671-0.53885-8.3833-0.50376zm-245.29 23.255c5.592-4e-3 11.185-3e-3 16.777 0.0212 5.2982 0.1156 11.021 1.1368 14.97 4.9515 3.7087 3.5546 4.8253 8.9197 4.8542 13.871 0 5.25-1.1363 11.01-5.1533 14.719-4.1519 3.8629-10.115 4.7016-15.567 4.7498-10.885 0-21.77-2.6e-4 -32.656-0.01-0.01-12.764-0.0193-25.538 0-38.301 5.592 0.01 11.183 2e-3 16.775-7.3e-4z" fill="#fff" stroke-width=".96331"/></svg>
