<svg width="379pt" height="379pt" version="1.1" viewBox="0 0 379 379" xmlns="http://www.w3.org/2000/svg"><path d="m0 0h379v379h-379v-379z" fill="#949300"/><g fill="#fff"><path d="m19.78 121.43c-0.0193 45.372-0.029 90.753 0 136.12 9.9702-0.0193 19.931 7.2e-4 29.901-9e-3 0.0385-17.725-9e-3 -35.46 0.0198-53.194 10.259 0.0193 20.508-0.0202 30.768 0.0183 5.934 0.0963 12.561 1.3486 16.501 6.2229 4.3927 5.5005 5.2017 12.813 5.8857 19.585 1.1174 9.1418 0.89663 18.602 4.143 27.358 9.9606 0.0578 19.921-0.0387 29.891 0.048-8.5349-15.952-2.0516-35.46-10.269-51.547-2.967-6.2904-8.8054-10.904-15.481-12.686 7.6776-3.2174 14.709-8.7091 18.216-16.425 6.2037-13.843 4.6631-31.626-5.8081-43.022-7.4175-8.2748-18.631-12.379-29.584-12.456-24.728-0.0481-49.456-9e-3 -74.184-0.0183zm46.7 23.262c5.592-4e-3 11.185-3e-3 16.777 0.0212 5.2982 0.1156 11.021 1.1368 14.97 4.9515 3.7087 3.5546 4.8253 8.9197 4.8542 13.871 0 5.25-1.1363 11.01-5.1533 14.719-4.1519 3.8629-10.115 4.7016-15.567 4.7498-10.885 0-21.77-2.6e-4 -32.656-0.01-0.01-12.764-0.0193-25.538 0-38.301 5.592 0.01 11.183 2e-3 16.775-7.3e-4z"/><path d="m187.32 121.42c-9.9702 0.0193-19.941 2.4e-4 -29.911 0.01-0.01 45.372-0.019 90.744 0.01 136.12 32.069 0.01 64.146-7.3e-4 96.214 9e-3 0.0193-8.4001 0.0193-16.789 0-25.18h-66.295c-0.0289-36.981 0.0106-73.964-0.0183-110.95z"/><path d="m276.39 134.75c8.3959-8.8358 20.666-13.288 32.727-13.288 14.538-0.20835 29.972 5.1857 39.001 17.046 8.4653 10.418 8.9978 26.245 1.8752 37.504-3.2102 5.0005-8.5194 8.203-14.106 9.9238 8.0255 1.744 15.549 6.5207 19.655 13.751 4.5992 7.7014 5.1008 17.162 3.4417 25.79-2.1453 11.321-9.6692 21.314-19.585 27.063-12.841 7.5625-28.622 9.0287-43.06 6.1194-11.676-2.3073-22.741-9.0518-28.884-19.423-5.1703-8.203-6.9991-18.05-6.8371-27.626 8.5965-8e-3 17.193-8e-3 25.782-8e-3 0.43214 7.1226 2.2765 14.569 7.3001 19.886 8.5425 8.8049 24.347 8.4499 32.75-0.36269 5.1934-5.641 6.0808-14.052 4.2365-21.244-1.2501-4.9928-5.4789-8.8049-10.202-10.541-6.3278-2.2919-13.157-2.0681-19.778-2.1453-0.0231-6.3895 0-12.771-0.0154-19.153 8.2493 0.45529 17.633 0.20063 24.046-5.7567 3.6115-3.0481 4.6687-8.0564 4.2365-12.578-0.2315-4.2906-2.1761-8.5116-5.5252-11.243-6.7059-5.5098-16.861-6.1272-24.316-1.8134-7.0377 4.3909-9.5225 13.173-9.5225 21.036-8.5965-8e-3 -17.185-0.0231-25.774 0 0.39356-11.93 4.2211-24.13 12.555-32.935z" stroke-width=".77168"/></g></svg>
