<svg width="379pt" height="379pt" version="1.1" viewBox="0 0 379 379" xmlns="http://www.w3.org/2000/svg"><path d="m0 0h379v379h-379v-379z" fill="#ffdc01"/><g fill="#231f20"><path d="m342.71 124.06c-8.0778 0.0464-16.148-0.05508-24.218 0.04541-18.436 24.96-37.073 49.781-55.594 74.672-0.86576 1.3605-2.4664 2.5428-2.335 4.3052 0.0235 7.8536 0.01679 15.716 0.00879 23.569 18.846-0.0386 37.69-2.3e-4 56.536-0.02343-0.031 10.312 8.6e-4 20.624-0.01464 30.943 8.5416-0.0155 17.083-0.0232 25.625 0-0.0232-10.312 0.01516-20.624-0.02344-30.936 5.9289 8e-3 11.85-0.01441 17.779 0.00879-8e-3 -7.4053 0-14.811 0-22.208-5.9289 8e-3 -11.849 8e-3 -17.77 0 0.0235-26.792-6.8e-4 -53.584 0.00732-80.376zm-25.664 33.571c0.12368 15.599 0.00119 31.206 0.06299 46.805-11.804 0-23.607 0.01471-35.411-0.00879 10.837-14.44 21.582-28.948 32.38-43.411 0.92759-1.175 1.5841-2.6586 2.9678-3.3852z" stroke-width=".773"/><path d="m187.32 121.42c-9.9702 0.0193-19.941 2.4e-4 -29.911 0.01-0.01 45.372-0.019 90.744 0.01 136.12 32.069 0.01 64.146-7.3e-4 96.214 9e-3 0.0193-8.4001 0.0193-16.789 0-25.18h-66.295c-0.0289-36.981 0.0106-73.964-0.0183-110.95z"/><path d="m19.78 121.43c-0.0193 45.372-0.029 90.753 0 136.12 9.9702-0.0193 19.931 7.2e-4 29.901-9e-3 0.0385-17.725-9e-3 -35.46 0.0198-53.194 10.259 0.0193 20.508-0.0202 30.768 0.0183 5.934 0.0963 12.561 1.3486 16.501 6.2229 4.3927 5.5005 5.2017 12.813 5.8857 19.585 1.1174 9.1418 0.89663 18.602 4.143 27.358 9.9606 0.0578 19.921-0.0387 29.891 0.048-8.5349-15.952-2.0516-35.46-10.269-51.547-2.967-6.2904-8.8054-10.904-15.481-12.686 7.6776-3.2174 14.709-8.7091 18.216-16.425 6.2037-13.843 4.6631-31.626-5.8081-43.022-7.4175-8.2748-18.631-12.379-29.584-12.456-24.728-0.0481-49.456-9e-3 -74.184-0.0183zm46.7 23.262c5.592-4e-3 11.185-3e-3 16.777 0.0212 5.2982 0.1156 11.021 1.1368 14.97 4.9515 3.7087 3.5546 4.8253 8.9197 4.8542 13.871 0 5.25-1.1363 11.01-5.1533 14.719-4.1519 3.8629-10.115 4.7016-15.567 4.7498-10.885 0-21.77-2.6e-4 -32.656-0.01-0.01-12.764-0.0193-25.538 0-38.301 5.592 0.01 11.183 2e-3 16.775-7.3e-4z"/></g></svg>
