<svg width="500" height="500" version="1.1" viewBox="0 0 500 500" xmlns="http://www.w3.org/2000/svg"><path d="m0 0h500v500h-500z" fill="#ee7f00"/><path d="m209.89 86.917c0.0312 97.469-0.0117 194.94 9e-3 292.41 30.031-0.0417 60.063-5.3e-4 90.083-0.0213 0.0312-33.99-0.0304-67.968 0.0321-101.96 15.948 0.0208 31.896-0.0104 47.844 0.0106 7.9687-0.0417 16.271 1.4786 22.885 6.1661 6.25 4.4166 10.198 11.354 12.5 18.521 3.6875 11.5 4.25 23.646 5.4688 35.584 1.1562 14.052 2.9586 28.135 7.0419 41.676 30.062 0.0312 60.135-0.0408 90.198 0.0321-3.375-5.9896-4.8443-12.803-6.0318-19.501-2.1667-13.583-2.8222-27.333-3.6972-41.042-1.2604-15.958-4.7297-32.01-12.282-46.239-6.6354-12.677-17.24-23.583-30.708-28.833 14.698-5.4792 26.656-17.032 33.719-30.917 9.3854-18.292 11.959-39.771 8.3023-59.917-3.1771-17.333-12.584-33.479-26.355-44.521-18.312-14.896-42.312-21.156-65.593-21.437-57.812-0.0208-115.61-0.0211-173.42-0.0107zm92.207 69.656c14.917 0.0417 29.844-0.0523 44.771 0.0519 10.26 0.22917 20.99 1.0727 30.177 6.0623 6.0833 3.2708 10.251 9.5416 11.198 16.344 1.5833 9.6042-0.0633 20.885-7.9071 27.458-8.0833 6.7604-19.146 7.8542-29.282 8.1146-16.333 0.10417-32.666 0.0204-48.999 0.0413 0.0104-19.365-0.0733-38.718 0.0413-58.072z" fill="#fff"/></svg>
