<?xml version="1.0" encoding="UTF-8" ?>
<!DOCTYPE svg PUBLIC "-//W3C//DTD SVG 1.1//EN" "http://www.w3.org/Graphics/SVG/1.1/DTD/svg11.dtd">
<svg width="185pt" height="185pt" viewBox="0 0 185 185" version="1.1" xmlns="http://www.w3.org/2000/svg">
<path fill="#e66bc2" opacity="1.00" d=" M 0.00 0.00 L 185.00 0.00 L 185.00 185.00 L 0.00 185.00 L 0.00 0.00 Z" />
<path fill="#ffffff" opacity="1.00" d=" M 15.09 57.14 C 26.07 57.13 37.04 57.13 48.02 57.13 C 53.47 56.98 59.00 59.34 62.31 63.73 C 67.35 70.26 67.81 79.44 65.02 87.00 C 63.60 90.83 60.53 93.75 56.99 95.65 C 60.67 97.29 63.45 100.50 64.48 104.40 C 67.07 112.81 65.10 121.95 68.31 130.23 C 63.81 130.23 59.31 130.24 54.81 130.22 C 52.77 123.02 53.79 115.36 51.77 108.17 C 50.98 104.98 48.36 102.19 44.98 101.89 C 39.58 101.38 34.15 101.78 28.73 101.68 C 28.71 111.18 28.72 120.67 28.73 130.17 C 24.19 130.29 19.64 130.22 15.09 130.22 C 15.08 105.86 15.07 81.50 15.09 57.14 Z" />
<path fill="#ffffff" opacity="1.00" d=" M 71.40 57.16 C 88.35 57.11 105.30 57.14 122.25 57.14 C 122.30 61.58 122.21 66.02 122.36 70.45 C 116.14 70.91 109.91 70.51 103.69 70.66 C 103.66 90.51 103.68 110.35 103.68 130.20 C 99.13 130.26 94.59 130.24 90.04 130.22 C 90.00 110.37 90.05 90.51 90.02 70.66 C 83.82 70.62 77.62 70.68 71.42 70.63 C 71.39 66.14 71.40 61.65 71.40 57.16 Z" />
<path fill="#ffffff" opacity="1.00" d=" M 134.12 63.06 C 140.97 55.90 153.15 55.24 161.01 61.13 C 170.49 68.15 171.88 82.53 166.42 92.45 C 160.26 103.02 147.49 107.30 141.09 117.70 C 150.70 117.80 160.30 117.70 169.91 117.75 C 169.93 121.91 169.93 126.06 169.91 130.22 C 155.00 130.23 140.09 130.26 125.18 130.20 C 125.39 124.89 126.22 119.47 128.77 114.73 C 132.06 108.31 137.75 103.64 143.23 99.16 C 147.24 95.87 151.79 93.04 154.74 88.67 C 157.87 84.11 158.18 77.56 154.93 72.99 C 152.25 69.19 146.11 68.37 142.79 71.79 C 139.15 75.58 138.79 81.14 138.35 86.10 C 134.43 86.13 130.51 86.13 126.60 86.10 C 126.55 77.94 128.23 69.12 134.12 63.06 Z" />
<path fill="#e66bc2" opacity="1.00" d=" M 28.74 69.64 C 33.84 69.65 38.95 69.57 44.05 69.65 C 47.19 69.61 50.71 70.94 51.98 74.04 C 53.54 77.78 53.49 82.25 51.86 85.96 C 50.53 88.98 47.05 90.21 43.96 90.18 C 38.89 90.26 33.81 90.18 28.74 90.18 C 28.71 83.34 28.71 76.49 28.74 69.64 Z" />
</svg>
