<svg width="739" height="739" xmlns="http://www.w3.org/2000/svg" xmlns:xlink="http://www.w3.org/1999/xlink" xml:space="preserve" overflow="hidden"><defs><clipPath id="clip0"><rect x="471" y="800" width="739" height="739"/></clipPath></defs><g clip-path="url(#clip0)" transform="translate(-471 -800)"><path d="M471 800 1210 800 1210 1539 471 1539 471 800Z" fill="#F26F24" fill-rule="evenodd"/><path d="M606.103 1015.17C636.327 979.094 685.354 964.684 731.034 965.005 774.512 965.969 821.522 976.432 852.709 1008.97 873.897 1030.22 882.749 1060.65 883.208 1090.06 855.781 1090.11 828.355 1090.15 800.929 1090.06 799.003 1069 788.913 1046.74 767.908 1038.85 741.124 1029.25 708.836 1027.14 683.474 1041.87 661.964 1053.62 656.736 1091.39 680.493 1103.37 703.012 1115.49 728.512 1119.8 752.773 1127.1 793.316 1137.84 838.354 1145.27 868.761 1176.89 901.644 1209.84 903.25 1264.64 881.648 1304.1 863.991 1336.41 830.053 1356.33 795.15 1364.87 749.104 1375.74 699.434 1374.78 654.993 1357.84 623.073 1345.68 594.087 1322.6 580.374 1290.75 572.118 1272.94 569.779 1253.26 569 1233.89 596.426 1233.66 623.898 1233.93 651.37 1233.7 652.975 1249.31 655.681 1265.78 666.275 1278.04 683.978 1299.56 713.606 1305.85 740.161 1305.57 760.157 1304.79 781.575 1301.9 797.948 1289.33 814.459 1277.12 818.678 1251.24 805.928 1234.85 795.197 1221.22 778.135 1215.35 762.313 1209.84 714.248 1194.88 661.322 1189.69 619.358 1159.68 573.953 1127.37 571.339 1056.15 606.103 1015.17Z" fill="#FFFFFF" fill-rule="evenodd"/><path d="M1024.39 982.069C1044.79 981.977 1065.14 981.977 1085.49 982.069 1085.91 1108.79 1084.89 1235.56 1086 1362.29 1060.03 1363.66 1034.02 1362.56 1008.05 1362.88 1007.96 1280.56 1008.09 1198.23 1007.96 1115.91 976.001 1115.77 944 1116.05 912 1115.77 912.092 1096.53 912.046 1077.25 912.046 1058.01 942.527 1057.6 975.863 1053.14 999.161 1031.56 1013.57 1018.89 1020.43 1000.34 1024.39 982.069Z" fill="#FFFFFF" fill-rule="evenodd"/></g></svg>