<?xml version="1.0" encoding="UTF-8" ?>
<!DOCTYPE svg PUBLIC "-//W3C//DTD SVG 1.1//EN" "http://www.w3.org/Graphics/SVG/1.1/DTD/svg11.dtd">
<svg width="161pt" height="161pt" viewBox="0 0 161 161" version="1.1" xmlns="http://www.w3.org/2000/svg">
<path fill="#80c241" opacity="1.00" d=" M 0.00 0.00 L 161.00 0.00 L 161.00 161.00 L 0.00 161.00 L 0.00 0.00 Z" />
<path fill="#ffffff" opacity="1.00" d=" M 20.67 46.71 C 27.91 38.65 39.38 35.81 49.88 36.43 C 59.05 36.99 68.86 39.72 74.99 47.00 C 79.00 51.54 80.50 57.67 80.68 63.59 C 74.69 63.62 68.69 63.63 62.70 63.59 C 62.30 59.05 60.18 54.27 55.69 52.50 C 49.81 50.31 42.70 49.87 37.09 53.06 C 32.12 55.76 31.30 64.57 37.08 66.84 C 46.70 71.12 57.39 72.23 67.23 75.91 C 73.21 78.23 78.87 82.35 81.52 88.35 C 85.69 97.94 82.97 110.16 74.86 116.86 C 67.74 122.91 58.10 124.79 49.00 125.02 C 38.43 125.06 27.10 122.36 19.49 114.57 C 14.36 109.41 12.14 102.04 12.16 94.89 C 18.14 94.97 24.11 94.90 30.08 94.94 C 30.44 98.34 31.05 101.93 33.38 104.60 C 37.15 109.14 43.38 110.55 49.03 110.57 C 53.52 110.47 58.33 109.83 62.02 107.05 C 65.64 104.39 66.61 98.73 63.81 95.14 C 61.48 92.17 57.75 90.90 54.31 89.70 C 43.63 86.36 31.77 85.28 22.58 78.36 C 12.96 70.98 12.80 55.43 20.67 46.71 Z" />
<path fill="#ffffff" opacity="1.00" d=" M 102.19 44.17 C 113.70 35.77 131.31 36.48 141.76 46.32 C 149.29 53.40 151.02 65.17 147.36 74.60 C 144.38 82.28 137.56 87.50 130.86 91.81 C 123.70 96.84 115.67 101.16 110.54 108.48 C 123.60 108.62 136.66 108.48 149.71 108.56 C 149.69 113.36 149.69 118.16 149.71 122.96 C 129.38 123.01 109.05 122.98 88.72 122.98 C 88.85 114.94 91.33 106.80 96.73 100.71 C 103.99 92.44 113.72 86.97 122.64 80.73 C 126.08 78.20 129.46 75.24 131.19 71.23 C 133.17 66.76 132.72 61.20 129.73 57.28 C 125.50 51.82 116.23 51.18 111.56 56.41 C 107.78 60.61 107.00 66.50 106.72 71.92 C 101.35 71.93 95.99 71.93 90.62 71.92 C 90.37 61.66 93.66 50.53 102.19 44.17 Z" />
</svg>
