<?xml version="1.0" encoding="UTF-8" ?>
<!DOCTYPE svg PUBLIC "-//W3C//DTD SVG 1.1//EN" "http://www.w3.org/Graphics/SVG/1.1/DTD/svg11.dtd">
<svg width="161pt" height="161pt" viewBox="0 0 161 161" version="1.1" xmlns="http://www.w3.org/2000/svg">
<path fill="#3e8b94" opacity="1.00" d=" M 0.00 0.00 L 161.00 0.00 L 161.00 161.00 L 0.00 161.00 L 0.00 0.00 Z" />
<path fill="#ffffff" opacity="1.00" d=" M 21.41 46.46 C 28.09 38.51 38.95 35.37 49.03 35.48 C 58.59 35.71 68.92 38.05 75.72 45.25 C 80.29 49.89 82.16 56.50 82.27 62.88 C 76.25 62.91 70.23 62.86 64.21 62.92 C 63.74 58.43 61.76 53.64 57.31 51.82 C 51.33 49.49 44.03 49.04 38.33 52.35 C 33.56 55.02 32.59 63.46 38.01 65.95 C 48.00 70.60 59.24 71.55 69.46 75.57 C 75.70 78.10 81.50 82.75 83.76 89.29 C 86.82 98.23 84.51 108.96 77.55 115.48 C 71.41 121.34 62.84 123.77 54.56 124.46 C 43.77 125.30 32.13 123.47 23.42 116.63 C 16.55 111.50 13.23 102.83 13.29 94.42 C 19.32 94.38 25.35 94.41 31.38 94.39 C 31.72 97.85 32.34 101.50 34.72 104.19 C 38.63 108.88 45.13 110.22 50.96 110.14 C 55.32 109.96 59.98 109.32 63.54 106.59 C 67.15 103.92 68.13 98.26 65.34 94.66 C 63.03 91.65 59.27 90.39 55.83 89.17 C 45.13 85.81 33.26 84.73 24.00 77.89 C 14.31 70.71 13.89 55.35 21.41 46.46 Z" />
<path fill="#ffffff" opacity="1.00" d=" M 96.19 46.18 C 108.07 33.32 131.66 35.03 141.87 49.11 C 148.66 58.41 145.64 74.47 133.73 77.83 C 138.58 79.11 143.16 81.93 145.70 86.36 C 150.24 94.01 149.02 104.06 144.37 111.38 C 139.10 119.49 129.39 123.70 119.97 124.27 C 110.59 124.83 100.39 122.33 93.82 115.23 C 88.45 109.56 86.43 101.56 86.44 93.93 C 91.80 93.92 97.16 93.91 102.52 93.94 C 102.94 98.02 103.74 102.30 106.44 105.55 C 112.00 112.55 124.59 111.85 129.12 104.05 C 131.82 99.25 131.65 92.39 127.61 88.38 C 123.23 84.55 116.99 85.02 111.57 84.83 C 111.56 80.90 111.56 76.97 111.57 73.04 C 116.47 73.09 121.86 73.02 125.95 69.92 C 130.60 66.33 130.31 58.66 126.17 54.79 C 121.02 49.86 111.45 50.45 107.34 56.42 C 105.24 59.30 104.81 62.92 104.52 66.36 C 99.17 66.33 93.82 66.36 88.48 66.34 C 88.91 59.06 91.12 51.60 96.19 46.18 Z" />
</svg>
