<?xml version="1.0" encoding="UTF-8" ?>
<!DOCTYPE svg PUBLIC "-//W3C//DTD SVG 1.1//EN" "http://www.w3.org/Graphics/SVG/1.1/DTD/svg11.dtd">
<svg width="161pt" height="161pt" viewBox="0 0 161 161" version="1.1" xmlns="http://www.w3.org/2000/svg">
<path fill="#8f7a2e" opacity="1.00" d=" M 0.00 0.00 L 161.00 0.00 L 161.00 161.00 L 0.00 161.00 L 0.00 0.00 Z" />
<path fill="#ffffff" opacity="1.00" d=" M 20.47 46.43 C 27.82 38.32 39.45 35.51 50.04 36.26 C 58.94 36.86 68.40 39.57 74.43 46.53 C 78.60 51.10 80.22 57.36 80.37 63.42 C 74.38 63.44 68.40 63.44 62.41 63.42 C 62.00 58.97 59.99 54.26 55.63 52.43 C 49.96 50.15 43.16 49.76 37.56 52.43 C 32.89 54.50 30.95 61.58 34.71 65.29 C 38.91 68.45 44.30 69.20 49.21 70.73 C 58.54 73.46 69.04 74.59 76.44 81.55 C 83.76 88.09 84.76 99.42 80.99 108.09 C 77.86 115.39 70.89 120.41 63.44 122.63 C 54.54 125.30 44.93 125.53 35.89 123.42 C 28.20 121.58 20.70 117.45 16.28 110.71 C 13.11 106.01 11.97 100.28 11.86 94.70 C 17.84 94.69 23.82 94.70 29.80 94.69 C 30.10 98.94 31.37 103.45 34.87 106.17 C 40.71 110.79 48.87 111.06 55.87 109.53 C 60.11 108.63 64.55 105.75 65.05 101.10 C 65.91 96.42 62.12 92.52 58.03 91.02 C 46.44 86.22 32.95 86.02 22.58 78.39 C 12.68 71.07 12.43 55.22 20.47 46.43 Z" />
<path fill="#ffffff" opacity="1.00" d=" M 88.04 88.14 C 99.84 71.93 111.97 55.94 123.92 39.83 C 128.93 39.84 133.95 39.83 138.96 39.84 C 138.98 56.47 138.95 73.11 138.98 89.74 C 142.64 89.74 146.30 89.74 149.97 89.74 C 149.98 94.36 149.99 98.98 149.96 103.60 C 146.30 103.59 142.63 103.59 138.97 103.60 C 138.95 109.99 138.98 116.39 138.95 122.79 C 133.63 122.79 128.30 122.80 122.98 122.79 C 122.94 116.39 122.98 109.99 122.96 103.59 C 111.24 103.51 99.53 103.75 87.82 103.48 C 88.08 98.37 87.63 93.24 88.04 88.14 Z" />
<path fill="#8f7a2e" opacity="1.00" d=" M 101.17 89.74 C 108.44 80.04 115.56 70.23 122.94 60.62 C 122.98 70.33 122.96 80.04 122.95 89.75 C 115.69 89.73 108.43 89.75 101.17 89.74 Z" />
</svg>
