<?xml version="1.0" encoding="UTF-8" ?>
<!DOCTYPE svg PUBLIC "-//W3C//DTD SVG 1.1//EN" "http://www.w3.org/Graphics/SVG/1.1/DTD/svg11.dtd">
<svg width="161pt" height="161pt" viewBox="0 0 161 161" version="1.1" xmlns="http://www.w3.org/2000/svg">
<path fill="#2ac0da" opacity="1.00" d=" M 0.00 0.00 L 161.00 0.00 L 161.00 161.00 L 0.00 161.00 L 0.00 0.00 Z" />
<path fill="#ffffff" opacity="1.00" d=" M 18.75 45.77 C 25.75 38.57 36.23 35.86 46.01 36.18 C 55.10 36.56 64.79 38.91 71.30 45.67 C 76.00 50.29 77.87 56.97 78.04 63.41 C 72.07 63.44 66.10 63.42 60.13 63.43 C 59.55 59.08 57.77 54.37 53.44 52.52 C 47.80 50.17 41.01 49.78 35.38 52.36 C 30.54 54.38 28.51 61.75 32.54 65.44 C 36.87 68.55 42.32 69.31 47.31 70.86 C 56.59 73.51 67.03 74.73 74.29 81.74 C 80.62 87.51 82.13 97.06 79.75 105.03 C 77.59 113.15 70.71 119.27 62.94 121.99 C 53.51 125.31 43.08 125.64 33.36 123.36 C 25.36 121.42 17.54 116.96 13.29 109.70 C 10.56 105.22 9.67 99.93 9.50 94.75 C 15.48 94.72 21.46 94.74 27.44 94.74 C 27.83 98.10 28.37 101.66 30.67 104.31 C 34.55 109.08 41.13 110.43 47.00 110.34 C 51.38 110.15 56.11 109.50 59.63 106.65 C 63.08 103.92 63.86 98.38 61.12 94.89 C 58.76 91.95 55.05 90.68 51.61 89.49 C 42.64 86.76 33.16 85.44 24.71 81.18 C 20.19 78.93 16.11 75.39 14.15 70.65 C 10.74 62.40 12.46 52.18 18.75 45.77 Z" />
<path fill="#ffffff" opacity="1.00" d=" M 95.15 46.00 C 105.72 36.57 122.91 35.56 134.71 43.27 C 141.76 48.10 146.19 57.30 143.76 65.78 C 142.45 71.51 137.93 75.94 132.60 78.12 C 137.87 79.54 142.87 82.71 145.38 87.70 C 150.00 96.74 148.08 108.75 140.67 115.75 C 134.15 122.00 124.84 124.58 115.97 124.47 C 107.69 124.25 99.03 121.99 92.78 116.28 C 85.58 109.81 83.47 98.73 86.91 89.81 C 89.19 83.71 94.91 79.61 101.06 78.02 C 97.64 76.79 94.24 75.02 92.12 71.96 C 86.55 64.15 88.10 52.41 95.15 46.00 Z" />
<path fill="#2ac0da" opacity="1.00" d=" M 112.34 51.50 C 116.03 50.47 120.15 50.66 123.60 52.36 C 130.57 55.84 131.19 67.41 124.30 71.31 C 118.33 74.73 109.15 73.86 105.35 67.63 C 101.84 61.59 105.49 53.04 112.34 51.50 Z" />
<path fill="#2ac0da" opacity="1.00" d=" M 110.35 85.65 C 117.04 83.04 125.95 84.88 129.50 91.56 C 133.38 98.57 129.74 108.58 121.94 110.94 C 114.31 113.78 104.33 109.56 102.55 101.23 C 100.79 95.03 104.04 87.68 110.35 85.65 Z" />
</svg>
