<?xml version="1.0" encoding="UTF-8" ?>
<!DOCTYPE svg PUBLIC "-//W3C//DTD SVG 1.1//EN" "http://www.w3.org/Graphics/SVG/1.1/DTD/svg11.dtd">
<svg width="161pt" height="161pt" viewBox="0 0 161 161" version="1.1" xmlns="http://www.w3.org/2000/svg">
<path fill="#f05675" opacity="1.00" d=" M 0.00 0.00 L 161.00 0.00 L 161.00 161.00 L 0.00 161.00 L 0.00 0.00 Z" />
<path fill="#ffffff" opacity="1.00" d=" M 18.45 45.47 C 25.28 38.47 35.45 35.76 45.00 35.93 C 54.44 36.21 64.60 38.61 71.26 45.75 C 75.75 50.36 77.53 56.89 77.69 63.19 C 71.70 63.21 65.72 63.21 59.73 63.19 C 59.25 58.77 57.33 54.05 52.96 52.21 C 47.35 49.95 40.67 49.56 35.08 52.09 C 30.46 54.04 28.40 60.57 31.53 64.59 C 35.45 68.08 40.95 68.77 45.80 70.30 C 55.35 73.15 66.15 74.20 73.74 81.33 C 83.46 90.17 82.21 107.12 72.72 115.68 C 65.57 122.31 55.46 124.39 46.00 124.59 C 35.51 124.65 24.32 121.97 16.70 114.35 C 11.46 109.18 9.13 101.73 9.19 94.49 C 15.15 94.52 21.11 94.48 27.07 94.52 C 27.42 98.70 28.62 103.15 32.06 105.87 C 37.74 110.41 45.68 110.76 52.55 109.42 C 56.92 108.61 61.70 105.86 62.31 101.04 C 63.23 96.59 59.85 92.64 55.94 91.07 C 47.10 87.17 37.25 86.38 28.33 82.70 C 22.71 80.61 17.19 77.16 14.38 71.67 C 10.18 63.23 11.79 52.21 18.45 45.47 Z" />
<path fill="#ffffff" opacity="1.00" d=" M 98.41 40.40 C 105.68 35.42 115.13 34.66 123.55 36.57 C 131.99 38.45 138.83 44.96 142.41 52.66 C 146.67 61.79 147.51 72.07 147.43 82.01 C 146.91 94.85 143.54 108.75 133.54 117.57 C 127.05 123.62 117.62 125.51 109.03 124.20 C 102.25 123.37 95.64 119.97 91.63 114.34 C 88.59 110.51 87.26 105.70 86.38 100.98 C 91.82 100.96 97.27 100.94 102.71 100.99 C 103.81 104.05 105.10 107.25 107.74 109.32 C 112.31 113.10 119.79 112.05 123.44 107.47 C 128.83 101.36 129.92 92.90 130.64 85.09 C 127.49 89.30 123.28 93.04 117.95 94.03 C 107.27 96.85 94.94 92.18 89.16 82.70 C 81.19 69.08 84.81 49.09 98.41 40.40 Z" />
<path fill="#f05675" opacity="1.00" d=" M 111.40 50.57 C 117.05 48.55 123.69 51.30 126.52 56.53 C 130.04 62.66 129.86 70.90 125.78 76.72 C 121.28 83.15 110.46 83.56 105.77 77.14 C 99.78 69.05 101.20 54.57 111.40 50.57 Z" />
</svg>
