<svg width="287pt" height="287pt" version="1.1" viewBox="0 0 287 287" xmlns="http://www.w3.org/2000/svg"><path d="m0 0h287v287h-287v-287z" fill="#008076"/><path d="m159.63 70.308c-40.896 0.01344-81.806-0.039367-122.7 0.027833 0.0134 9.1657 0.0269 18.331 0 27.497 14.918 0.080599 29.836-0.012685 44.741 0.041015 0.0134 40.762-0.013616 81.523 0.013184 122.29 10.94 0.0538 21.879-0.09413 32.805 0.08057 0.3091-40.735 0.17468-81.484 0.08057-122.22 15.012-0.36286 30.038-0.053663 45.063-0.16113 0.0134-9.1792 0.0134-18.372 0-27.551zm74.616 2.688c-7.9024 0.01344-15.805-0.027137-23.707 0.013183-1.2364 8.0771-4.933 16.128-11.733 20.993-8.9238 6.5047-20.401 8.4541-31.247 7.8896-0.0134 7.4992 0 14.998 0 22.51 12.216-0.0134 24.446 0.06826 36.662-0.05274 0.32254 31.811 0.04067 63.648 0.13476 95.459 9.9721 0.0269 19.945 0.02815 29.903 0.01465 0.0134-48.947 0.02712-97.894-0.01318-146.83z" fill="#fff" stroke-linecap="round" stroke-linejoin="round" stroke-miterlimit="0" stroke-width="15"/></svg>
