<svg width="287pt" height="287pt" version="1.1" viewBox="0 0 287 287" xmlns="http://www.w3.org/2000/svg"><path d="m0 0h287v287h-287v-287z" fill="#008076"/><path d="m23.41 70.296c-0.0135 9.1891-0.0135 18.392 0 27.582 14.92 0.0135 29.841 0 44.761 0 0.0404 40.806 0.013184 81.611 0.013184 122.42 10.992 0.0538 21.998 9.3e-4 33.003 0.02783 0.0269-40.819-3.1e-4 -81.626 0.01319-122.43 15.015-0.0269 30.016 3.17e-4 45.031-0.013183 0.0135-9.1891 0-18.392 0-27.582-40.94-0.0135-81.881-0.0135-122.82 0zm183.69 0.084961c-12.814 0.51025-25.56 5.3959-34.648 14.566-11.813 11.517-16.226 28.792-15.513 44.883 9.512 0.0135 19.038-3.2e-4 28.563 0.01318 0.13454-9.9156 1.8563-20.759 9.0542-28.146 6.5521-7.1844 18.378-7.4269 26.316-2.4624 7.9647 4.4129 10.818 14.544 9.7412 23.101-1.8566 11.167-10.898 19.186-19.939 25.052-15.149 10.117-31.172 19.589-43.334 33.434-9.3505 10.844-14.18 25.198-13.723 39.486 36.003 0.0135 72.005 0 107.99 0 0.0404-8.5164 0.01319-17.032 0.01319-25.562-23.195-0.0135-46.375 0.01235-69.557-0.01465 11.745-16.912 31.308-25.455 47.372-37.469 9.3505-7.467 17.706-17.301 20.087-29.329 2.9061-13.319 0.71225-28.321-7.979-39.138-9.189-11.772-24.163-18.297-38.962-18.365-1.823-0.10595-3.6552-0.1227-5.4858-0.049804z" fill="#fff" stroke-linecap="round" stroke-linejoin="round" stroke-miterlimit="0" stroke-width="15"/></svg>
