<svg width="287pt" height="287pt" version="1.1" viewBox="0 0 287 287" xmlns="http://www.w3.org/2000/svg"><path d="m0 0h287v287h-287v-287z" fill="#008076"/><path d="m146.09 70.389c-41.002 0.0135-82.004 0.001148-123.01 0.014648v27.621c14.956 0.0135 29.899-3.16e-4 44.842 0.013184 0.0135 40.867-3.17e-4 81.734 0.013183 122.6 11.022 0.0135 22.031 0 33.053 0 0.0269-40.867-0.01403-81.734 0.02637-122.6 15.024-0.0135 30.048 3.16e-4 45.072-0.013184 0.0135-9.2163 0.0269-18.419 0-27.636zm60.161 0.11865c-11.426 0.13724-23.02 3.3197-31.838 10.783-11.884 9.5666-17.866 24.967-18.149 39.964 9.4858 0.0269 18.957 0.01318 28.443 0.01318 0.20212-7.9767 2.4387-16.68 9.041-21.76 7.3569-5.3897 18.123-5.9962 25.857-1.0107 9.7822 5.4301 12.087 21.37 3.1128 28.579-6.9527 5.7804-16.546 5.8344-25.143 5.6323 0.0539 7.0739 0.01265 14.147 0.03955 21.234 9.2163-0.18863 19.309-0.25538 27.231 5.2017 8.2327 7.1413 8.7177 20.724 3.0586 29.603-7.1952 11.21-23.809 12.774-34.575 6.0908-8.2597-5.457-11.196-15.684-11.708-25.062-9.4589 0-18.918-0.0135-28.377 0-0.61981 16.007 5.3092 32.795 18.325 42.699 15.751 11.44 36.987 13.218 55.352 7.8955 14.39-3.8267 27.284-14.39 32.445-28.551 4.3791-11.588 4.3526-25.521-2.6001-36.111-4.6755-7.4512-12.666-12.125-21.06-14.187 4.689-1.6708 9.2294-3.9894 12.719-7.6274 11.83-12.787 10.605-34.601-1.2656-46.983-8.9468-10.348-22.664-15.307-36.031-16.277-1.6169-0.10106-3.2456-0.14412-4.8779-0.12451z" fill="#fff" stroke-linecap="round" stroke-linejoin="round" stroke-miterlimit="0" stroke-width="15"/></svg>
