<svg width="287pt" height="287pt" version="1.1" viewBox="0 0 287 287" xmlns="http://www.w3.org/2000/svg"><path transform="translate(2.349e-6)" d="m0 0h287v287h-287v-287z" fill="#008076"/><path transform="matrix(1.3538 0 0 1.3538 328.65 62.392)" d="m-225.84 5.8212c-0.02 6.83-0.02 13.668 0 20.498 11.08 0.01 22.17-0.0092 33.25 0.01082 0.04 30.33-0.0105 60.66 0.0195 90.99 8.18 0 16.36 0.0103 24.53-0.01 0.0202-30.32 8.2e-4 -60.65 0.0108-90.98 11.16-0.01995 22.31-8.2e-4 33.46-0.01082 0.01-6.83 0.02-13.668 0-20.498-30.43-0.01-60.85 0-91.27 0zm143.62 2.1489c-16.14 21.09-31.76 42.581-47.76 63.791-0.05 6.77-9e-3 13.529-0.0195 20.299 15.41 0.0399 30.809-0.01052 46.219 0.01948 0 8.41-0.01918 16.831 0.01082 25.241 7.03 0.01 14.049-2.6e-4 21.079 0.01 0.04-8.42 0.01056-16.841 0.02056-25.251 4.82-0.01995 9.6285 0.0116 14.449-0.0184 0.01004-6.07-0.0092-12.151 0.01082-18.221-4.82-0.05-9.6393-0.0103-14.459-0.0303-0.01005-21.91 0.0092-43.82-0.01082-65.739-6.51-0.060004-13.03 0.10937-19.54-0.10063zm-1.6014 27.47c0.08 12.71 0.01112 25.411 0.04112 38.121-9.57 0.02-19.14 0.01-28.72 0 9.55-12.71 19.048-25.471 28.678-38.121z" fill="#fff" stroke-linecap="round" stroke-linejoin="round" stroke-miterlimit="0" stroke-width="15"/></svg>
