<svg width="287pt" height="287pt" version="1.1" viewBox="0 0 287 287" xmlns="http://www.w3.org/2000/svg"><path transform="translate(2.349e-6)" d="m0 0h287v287h-287v-287z" fill="#008076"/><path d="m22.882 70.26c-0.01352 9.2372-0.01352 18.473 0 27.724 14.999 0.01352 29.997 0 44.996 0 0.02705 40.911-2.88e-4 81.824 0.01323 122.74h33.176c0.0136-40.911 0.0136-81.823 0-122.72 15.093-0.02705 30.186-0.0012 45.28-0.0147v-27.724c-41.155 0-82.31-0.01352-123.46 0zm232.27 3.0421c-27.536 0.01352-55.072-0.03969-82.608 0.02794-4.8147 27.279-9.7775 54.517-14.619 81.796 8.9126 0.0405 17.812-0.0677 26.724 0.0676 4.3684-5.3151 9.8868-10.509 17.028-11.348 9.0884-1.8664 19.475 0.96057 25.25 8.5072 9.6023 12.429 7.6674 32.755-5.2078 42.236-6.9921 5.2745-16.661 5.7621-24.6 2.4892-7.8577-3.5704-12.795-11.55-13.809-19.962-10.022-0.027-20.043-0.027-30.065 0 0.24344 9.156 2.5696 18.448 7.9794 25.967 9.3724 13.43 26.09 19.935 42.021 20.611 14.444 1.4471 29.428-3.0834 40.532-12.483 11.266-9.2237 18.339-23.315 18.974-37.881 0.35164-12.537-2.5832-25.549-10.157-35.746-14.363-20.003-47.01-22.951-64.673-5.7474 2.0286-11.388 4.0305-22.789 5.9915-34.191 20.422-0.01352 40.83 0.01352 61.238 0z" fill="#fff" stroke-linecap="round" stroke-linejoin="round" stroke-miterlimit="0" stroke-width="15.056"/></svg>
