<svg width="287pt" height="287pt" version="1.1" viewBox="0 0 287 287" xmlns="http://www.w3.org/2000/svg"><path transform="translate(2.349e-6)" d="m0 0h287v287h-287v-287z" fill="#008076"/><path d="m22.882 70.259v27.75c15.013 0.01353 30.014 0.01535 45.028-0.01172 0.08122 41.074-0.0011 82.147 0.03955 123.21 11.06 0 22.134 0.0135 33.208 0 0.0135-41.06-0.0135-82.12 0-123.18 15.108-0.01354 30.217-0.0011 45.325-0.01465v-27.75c-41.209 0-82.405-0.01354-123.6 0zm187.63 0.4043c-16.503-0.01354-32.64 8.76-41.71 22.528-12.116 18.032-15.65 40.464-14.445 61.813 0.78519 16.733 3.9255 34.1 13.51 48.207 15.704 23.948 52.284 27.483 74.499 10.818 21.322-16.381 26.75-49.373 12.413-71.981-11.805-18.114-37.593-25.234-57.047-15.798-5.9566 2.7075-10.329 7.7563-14.445 12.684 0.33843-13.118 3.0051-27.075 11.209-37.648 6.2409-8.1362 18.967-11.194 27.59-5.1021 5.1308 3.5875 8.1088 9.38 9.5303 15.35 9.5712 0.0271 19.142 0.041 28.699-0.0132-1.7464-10.302-5.6579-20.66-13.415-27.957-9.3816-9.5847-23.312-13.185-36.39-12.901zm0.20069 74.045c6.4251 0.23478 12.713 3.4353 16.247 8.9282 6.9719 10.573 7.3647 25.397 0.55517 36.16-4.9413 7.8519-15.231 11.44-24.057 9.0308-11.466-3.4386-18.018-15.854-17.571-27.321-0.16244-11.331 6.553-23.827 18.453-26.02 2.0747-0.60581 4.2318-0.85604 6.3735-0.77784z" fill="#fff" stroke-linecap="round" stroke-linejoin="round" stroke-miterlimit="0" stroke-width="15"/></svg>
